<?xml version="1.0" encoding="UTF-8"?>
<svg id="Layer_1" xmlns="http://www.w3.org/2000/svg" version="1.1" xmlns:xlink="http://www.w3.org/1999/xlink" viewBox="0 0 500 500">
  <!-- Generator: Adobe Illustrator 29.2.1, SVG Export Plug-In . SVG Version: 2.1.0 Build 116)  -->
  <defs>
    <style>
      .st0, .st1, .st2 {
        fill: #fff;
      }

      .st3 {
        fill: #f00000;
      }

      .st4, .st5 {
        fill: #b10000;
      }

      .st6 {
        fill: #cf2828;
      }

      .st7 {
        fill: #421b36;
      }

      .st8 {
        fill: #3a3a3a;
      }

      .st9 {
        opacity: .3;
      }

      .st10 {
        fill: #161515;
      }

      .st11 {
        fill: #569abf;
      }

      .st12 {
        fill: #f9d2d2;
      }

      .st13 {
        fill: #8380ff;
      }

      .st14 {
        fill: #ef6262;
      }

      .st15 {
        fill: #ffbfbf;
      }

      .st1 {
        stroke: #fff;
        stroke-linejoin: round;
        stroke-width: .5px;
      }

      .st16 {
        fill: #ffae7a;
      }

      .st17 {
        fill: #ccc;
      }

      .st18 {
        opacity: .2;
      }

      .st2 {
        font-size: 3.4px;
        letter-spacing: 0em;
      }

      .st2, .st5 {
        font-family: MyriadPro-Regular, 'Myriad Pro';
      }

      .st5 {
        font-size: 4.2px;
        letter-spacing: .1em;
        stroke: #b10000;
        stroke-miterlimit: 10;
        stroke-width: .1px;
      }

      .st19 {
        fill: #ffe6de;
      }
    </style>
  </defs>
  <g id="Background_Simple">
    <g>
      <path class="st12" d="M457.8,120c0,34.3-1.3,68.6-3.9,102.8-1.8,23.4-4.9,48.4-17,67.8,0,0,0,0,0,0-2.2,3.6-4.8,7-7.7,10.2-.5.6-1,1.1-1.6,1.7-2.1,2.1-4.3,4-6.6,5.8-5.4,4.2-11.4,7.6-17.7,10.4-2.8,1.3-5.7,2.4-8.7,3.4-1.5.5-3.1,1.1-4.7,1.5-2.5.8-5,1.5-7.6,2.2-4.7,1.2-9.5,2.3-14.2,3.2-.5.1-1.1.2-1.6.3-20,3.9-40.3,6.5-60.6,8.3-18.5,1.7-37,2.7-55.5,3.6-.2,0-.5,0-.7,0-.2,0-.5,0-.7,0-3.8.2-7.6.3-11.3.5-12.5.5-25.2,1-37.8.9-11.3,0-22.7-.5-33.8-1.6l-58.9-14.5c-1.5-.9-3.1-1.8-4.6-2.8,0,0,0,0,0,0-.2-.1-.4-.2-.6-.4,0,0-.2-.1-.3-.2-2.4-1.5-4.9-3-7.3-4.5-1.1-.7-2.2-1.4-3.4-2.2-1-.6-2-1.3-3-2-1.3-.9-2.6-1.7-3.9-2.6-1.8-1.2-3.5-2.5-5.2-3.8-1.9-1.4-3.7-2.9-5.5-4.4-2-1.6-3.9-3.4-5.7-5.1-1.1-1-2.1-2.1-3.2-3.2h0c-2.6-2.7-5-5.5-7.2-8.5-2.8-3.7-5.2-7.7-7.2-12-15.4-32.6-8.9-68.1-7.4-104.2,1.8-43.2,2.7-45.2,2.8-61.5,0-17.6,5.3-29.7,15-44.3,9.3-14,24.3-23.6,40.2-29.2,15.9-5.6,32.8-7.5,49.6-8.9,81.9-6.7,164.6-1.4,245.2,14.3,17.5,3.4,36.2,8,48.1,21.4,13.4,15.1,14.5,37.1,14.5,57.2Z"/>
      <path class="st0" d="M166,341.3c-22.2-2.2-43.7-7-63.6-16.6-.2-.1-.4-.2-.7-.3h-.2c0-.2,0-.2,0-.3v-.6c-2.4-1.5-4.9-3-7.3-4.5-1,0-2.2,0-2.9-.4-.5-.4-.6-1-.5-1.7-1-.6-2-1.3-3-2-1.3-.9-2.6-1.7-3.9-2.6-1.8-1.2-3.5-2.5-5.2-3.8-1.9-1.4-3.7-2.9-5.5-4.4-2-1.6-3.9-3.4-5.7-5.1-1.1-1-2.1-2.1-3.2-3.2h0c-2.6-2.7-5-5.5-7.2-8.5.1-10.1.3-19.9.5-28.8,0-5.4.6-11.9,2.8-13l37.6.9c1.8,0,3.3,1.3,3.8,3,.3.9.5,2,.7,3.2,0-4.2.2-8.4.3-12.6v-.2c.5-24.1,1-46.2,1.3-60.4.1-7.8.9-17.3,4-18.9l52.6,1.4c2.5,0,4.6,1.8,5.3,4.3.9,3.5,1.7,8.6,1.9,13.3.8,37.7-1.7,118.2-1.9,161.8Z"/>
      <g>
        <path class="st0" d="M436,118.7c1.6-1.5,1.8-4.2.5-5.9-1.4-1.7-4.2-2-5.9-.7.4-2.1-.7-4.3-2.5-5.3s-4.3-.8-5.8.6c-1.6,1.4-2.2,3.8-1.4,5.7-1-.2-2-.3-3,0-.9.4-1.7,1.2-1.7,2.2,0,1,.6,3,1.4,3.5l18.5-.2Z"/>
        <path class="st0" d="M300.8,115.2c1.6-1.5,1.8-4.2.5-5.9-1.4-1.7-4.2-2-5.9-.7.4-2.1-.7-4.3-2.5-5.3s-4.3-.8-5.8.6-2.2,3.8-1.4,5.7c-1-.2-2-.3-3,0-.9.4-1.7,1.2-1.7,2.2,0,1,.6,3,1.4,3.5l18.5-.2Z"/>
        <path class="st0" d="M424.8,89.9c3.4-3.1,3.9-8.9,1-12.4s-8.7-4.2-12.4-1.4c.8-4.3-1.4-9-5.2-11.2-3.8-2.2-9-1.7-12.3,1.2s-4.6,7.9-3,12c-2.1-.5-4.3-.6-6.2.2-2,.8-3.6,2.6-3.6,4.7,0,2,1.2,6.3,2.9,7.3l38.9-.4Z"/>
        <path class="st0" d="M76.3,187.8c1.9-1.7,2.1-4.9.5-6.8-1.6-1.9-4.8-2.3-6.8-.8.4-2.4-.8-4.9-2.9-6.1-2.1-1.2-4.9-.9-6.7.7-1.8,1.6-2.5,4.3-1.6,6.6-1.1-.3-2.3-.3-3.4,0s-2,1.4-2,2.6c0,1.1.6,3.4,1.6,4l21.3-.2Z"/>
        <path class="st0" d="M237.8,65.2c2.5-2.2,2.8-6.4.7-9-2.1-2.6-6.3-3-8.9-1,.6-3.1-1-6.5-3.8-8.1s-6.5-1.2-8.9.9c-2.4,2.1-3.3,5.7-2.1,8.7-1.5-.3-3.1-.4-4.5.1-1.4.6-2.6,1.9-2.6,3.4,0,1.5.9,4.5,2.1,5.3l28.1-.3Z"/>
        <path class="st0" d="M129.8,94.4c4.5-4,5-11.6,1.2-16.2-3.8-4.6-11.4-5.5-16.1-1.8,1-5.6-1.8-11.7-6.8-14.6-5-2.8-11.7-2.2-16,1.6-4.3,3.7-5.9,10.3-3.8,15.6-2.7-.6-5.6-.8-8.1.2-2.6,1-4.7,3.4-4.7,6.2,0,2.6,1.5,8.1,3.8,9.5l50.5-.5Z"/>
        <g>
          <path class="st19" d="M121.2,170.5c-.4-.5-1.1-.6-1.7-.6-1,0-2.5-.1-3.9-.1-1,0-1.8.8-1.9,1.8,0,1.2-.1,2.6-.1,3.5,0,1.7-.4,3.1.7,3.9,1.2.9,3.8.6,5.2.6.6,0,1.2,0,1.6-.4.4-.4.4-1,.5-1.6,0-1.7.1-3.4.1-5.1,0-.7,0-1.5-.5-2Z"/>
          <path class="st19" d="M133.6,170.5c-.4-.5-1.1-.6-1.7-.6-1,0-2.5-.1-3.9-.1-1,0-1.8.8-1.9,1.8,0,1.2-.1,2.6-.1,3.5,0,1.7-.4,3.1.7,3.9,1.2.9,3.8.6,5.2.6.6,0,1.2,0,1.6-.4.4-.4.4-1,.5-1.6,0-1.7.1-3.4.1-5.1,0-.7,0-1.5-.5-2Z"/>
          <path class="st19" d="M146,170.5c-.4-.5-1.1-.6-1.7-.6-1,0-2.5-.1-3.9-.1-1,0-1.8.8-1.9,1.8,0,1.2-.1,2.6-.1,3.5,0,1.7-.4,3.1.7,3.9,1.2.9,3.8.6,5.2.6.6,0,1.2,0,1.6-.4.4-.4.4-1,.5-1.6,0-1.7.1-3.4.1-5.1,0-.7,0-1.5-.5-2Z"/>
          <path class="st19" d="M158.3,170.5c-.4-.5-1.1-.6-1.7-.6-1,0-2.5-.1-3.9-.1-1,0-1.8.8-1.9,1.8,0,1.2-.1,2.6-.1,3.5,0,1.7-.4,3.1.7,3.9,1.2.9,3.8.6,5.2.6.6,0,1.2,0,1.6-.4.4-.4.4-1,.5-1.6,0-1.7.1-3.4.1-5.1,0-.7,0-1.5-.5-2Z"/>
          <path class="st19" d="M121.2,185.2c-.4-.5-1.1-.6-1.7-.6-1,0-2.5-.1-3.9-.1-1,0-1.8.8-1.9,1.8,0,1.2-.1,2.6-.1,3.5,0,1.7-.4,3.1.7,3.9,1.2.9,3.8.6,5.2.6.6,0,1.2,0,1.6-.4.4-.4.4-1,.5-1.6,0-1.7.1-3.4.1-5.1,0-.7,0-1.5-.5-2Z"/>
          <path class="st19" d="M133.6,185.2c-.4-.5-1.1-.6-1.7-.6-1,0-2.5-.1-3.9-.1-1,0-1.8.8-1.9,1.8,0,1.2-.1,2.6-.1,3.5,0,1.7-.4,3.1.7,3.9,1.2.9,3.8.6,5.2.6.6,0,1.2,0,1.6-.4.4-.4.4-1,.5-1.6,0-1.7.1-3.4.1-5.1,0-.7,0-1.5-.5-2Z"/>
          <path class="st19" d="M146,185.2c-.4-.5-1.1-.6-1.7-.6-1,0-2.5-.1-3.9-.1-1,0-1.8.8-1.9,1.8,0,1.2-.1,2.6-.1,3.5,0,1.7-.4,3.1.7,3.9,1.2.9,3.8.6,5.2.6.6,0,1.2,0,1.6-.4.4-.4.4-1,.5-1.6,0-1.7.1-3.4.1-5.1,0-.7,0-1.5-.5-2Z"/>
          <path class="st19" d="M158.3,185.2c-.4-.5-1.1-.6-1.7-.6-1,0-2.5-.1-3.9-.1-1,0-1.8.8-1.9,1.8,0,1.2-.1,2.6-.1,3.5,0,1.7-.4,3.1.7,3.9,1.2.9,3.8.6,5.2.6.6,0,1.2,0,1.6-.4.4-.4.4-1,.5-1.6,0-1.7.1-3.4.1-5.1,0-.7,0-1.5-.5-2Z"/>
          <path class="st19" d="M121.2,199.8c-.4-.5-1.1-.6-1.7-.6-1,0-2.5-.1-3.9-.1-1,0-1.8.8-1.9,1.8,0,1.2-.1,2.6-.1,3.5,0,1.7-.4,3.1.7,3.9,1.2.9,3.8.6,5.2.6.6,0,1.2,0,1.6-.4.4-.4.4-1,.5-1.6,0-1.7.1-3.4.1-5.1,0-.7,0-1.5-.5-2Z"/>
          <path class="st19" d="M133.6,199.8c-.4-.5-1.1-.6-1.7-.6-1,0-2.5-.1-3.9-.1-1,0-1.8.8-1.9,1.8,0,1.2-.1,2.6-.1,3.5,0,1.7-.4,3.1.7,3.9,1.2.9,3.8.6,5.2.6.6,0,1.2,0,1.6-.4.4-.4.4-1,.5-1.6,0-1.7.1-3.4.1-5.1,0-.7,0-1.5-.5-2Z"/>
          <path class="st19" d="M146,199.8c-.4-.5-1.1-.6-1.7-.6-1,0-2.5-.1-3.9-.1-1,0-1.8.8-1.9,1.8,0,1.2-.1,2.6-.1,3.5,0,1.7-.4,3.1.7,3.9,1.2.9,3.8.6,5.2.6.6,0,1.2,0,1.6-.4.4-.4.4-1,.5-1.6,0-1.7.1-3.4.1-5.1,0-.7,0-1.5-.5-2Z"/>
          <path class="st19" d="M158.3,199.8c-.4-.5-1.1-.6-1.7-.6-1,0-2.5-.1-3.9-.1-1,0-1.8.8-1.9,1.8,0,1.2-.1,2.6-.1,3.5,0,1.7-.4,3.1.7,3.9,1.2.9,3.8.6,5.2.6.6,0,1.2,0,1.6-.4.4-.4.4-1,.5-1.6,0-1.7.1-3.4.1-5.1,0-.7,0-1.5-.5-2Z"/>
          <path class="st19" d="M121.2,214.4c-.4-.5-1.1-.6-1.7-.6-1,0-2.5-.1-3.9-.1-1,0-1.8.8-1.9,1.8,0,1.2-.1,2.6-.1,3.5,0,1.7-.4,3.1.7,3.9,1.2.9,3.8.6,5.2.6.6,0,1.2,0,1.6-.4.4-.4.4-1,.5-1.6,0-1.7.1-3.4.1-5.1,0-.7,0-1.5-.5-2Z"/>
          <path class="st19" d="M133.6,214.4c-.4-.5-1.1-.6-1.7-.6-1,0-2.5-.1-3.9-.1-1,0-1.8.8-1.9,1.8,0,1.2-.1,2.6-.1,3.5,0,1.7-.4,3.1.7,3.9,1.2.9,3.8.6,5.2.6.6,0,1.2,0,1.6-.4.4-.4.4-1,.5-1.6,0-1.7.1-3.4.1-5.1,0-.7,0-1.5-.5-2Z"/>
          <path class="st19" d="M146,214.4c-.4-.5-1.1-.6-1.7-.6-1,0-2.5-.1-3.9-.1-1,0-1.8.8-1.9,1.8,0,1.2-.1,2.6-.1,3.5,0,1.7-.4,3.1.7,3.9,1.2.9,3.8.6,5.2.6.6,0,1.2,0,1.6-.4.4-.4.4-1,.5-1.6,0-1.7.1-3.4.1-5.1,0-.7,0-1.5-.5-2Z"/>
          <path class="st19" d="M158.3,214.4c-.4-.5-1.1-.6-1.7-.6-1,0-2.5-.1-3.9-.1-1,0-1.8.8-1.9,1.8,0,1.2-.1,2.6-.1,3.5,0,1.7-.4,3.1.7,3.9,1.2.9,3.8.6,5.2.6.6,0,1.2,0,1.6-.4.4-.4.4-1,.5-1.6,0-1.7.1-3.4.1-5.1,0-.7,0-1.5-.5-2Z"/>
          <path class="st19" d="M121.2,229c-.4-.5-1.1-.6-1.7-.6-1,0-2.5-.1-3.9-.1-1,0-1.8.8-1.9,1.8,0,1.2-.1,2.6-.1,3.5,0,1.7-.4,3.1.7,3.9,1.2.9,3.8.6,5.2.6.6,0,1.2,0,1.6-.4.4-.4.4-1,.5-1.6,0-1.7.1-3.4.1-5.1,0-.7,0-1.5-.5-2Z"/>
          <path class="st19" d="M133.6,229c-.4-.5-1.1-.6-1.7-.6-1,0-2.5-.1-3.9-.1-1,0-1.8.8-1.9,1.8,0,1.2-.1,2.6-.1,3.5,0,1.7-.4,3.1.7,3.9,1.2.9,3.8.6,5.2.6.6,0,1.2,0,1.6-.4.4-.4.4-1,.5-1.6,0-1.7.1-3.4.1-5.1,0-.7,0-1.5-.5-2Z"/>
          <path class="st19" d="M146,229c-.4-.5-1.1-.6-1.7-.6-1,0-2.5-.1-3.9-.1-1,0-1.8.8-1.9,1.8,0,1.2-.1,2.6-.1,3.5,0,1.7-.4,3.1.7,3.9,1.2.9,3.8.6,5.2.6.6,0,1.2,0,1.6-.4.4-.4.4-1,.5-1.6,0-1.7.1-3.4.1-5.1,0-.7,0-1.5-.5-2Z"/>
          <path class="st19" d="M158.3,229c-.4-.5-1.1-.6-1.7-.6-1,0-2.5-.1-3.9-.1-1,0-1.8.8-1.9,1.8,0,1.2-.1,2.6-.1,3.5,0,1.7-.4,3.1.7,3.9,1.2.9,3.8.6,5.2.6.6,0,1.2,0,1.6-.4.4-.4.4-1,.5-1.6,0-1.7.1-3.4.1-5.1,0-.7,0-1.5-.5-2Z"/>
          <path class="st19" d="M121.2,243.6c-.4-.5-1.1-.6-1.7-.6-1,0-2.5-.1-3.9-.1-1,0-1.8.8-1.9,1.8,0,1.2-.1,2.6-.1,3.5,0,1.7-.4,3.1.7,3.9,1.2.9,3.8.6,5.2.6.6,0,1.2,0,1.6-.4.4-.4.4-1,.5-1.6,0-1.7.1-3.4.1-5.1,0-.7,0-1.5-.5-2Z"/>
          <path class="st19" d="M133.6,243.6c-.4-.5-1.1-.6-1.7-.6-1,0-2.5-.1-3.9-.1-1,0-1.8.8-1.9,1.8,0,1.2-.1,2.6-.1,3.5,0,1.7-.4,3.1.7,3.9,1.2.9,3.8.6,5.2.6.6,0,1.2,0,1.6-.4.4-.4.4-1,.5-1.6,0-1.7.1-3.4.1-5.1,0-.7,0-1.5-.5-2Z"/>
          <path class="st19" d="M146,243.6c-.4-.5-1.1-.6-1.7-.6-1,0-2.5-.1-3.9-.1-1,0-1.8.8-1.9,1.8,0,1.2-.1,2.6-.1,3.5,0,1.7-.4,3.1.7,3.9,1.2.9,3.8.6,5.2.6.6,0,1.2,0,1.6-.4.4-.4.4-1,.5-1.6,0-1.7.1-3.4.1-5.1,0-.7,0-1.5-.5-2Z"/>
          <path class="st19" d="M158.3,243.6c-.4-.5-1.1-.6-1.7-.6-1,0-2.5-.1-3.9-.1-1,0-1.8.8-1.9,1.8,0,1.2-.1,2.6-.1,3.5,0,1.7-.4,3.1.7,3.9,1.2.9,3.8.6,5.2.6.6,0,1.2,0,1.6-.4.4-.4.4-1,.5-1.6,0-1.7.1-3.4.1-5.1,0-.7,0-1.5-.5-2Z"/>
          <path class="st19" d="M121.2,258.2c-.4-.5-1.1-.6-1.7-.6-1,0-2.5-.1-3.9-.1-1,0-1.8.8-1.9,1.8,0,1.2-.1,2.6-.1,3.5,0,1.7-.4,3.1.7,3.9,1.2.9,3.8.6,5.2.6.6,0,1.2,0,1.6-.4.4-.4.4-1,.5-1.6,0-1.7.1-3.4.1-5.1,0-.7,0-1.5-.5-2Z"/>
          <path class="st19" d="M133.6,258.2c-.4-.5-1.1-.6-1.7-.6-1,0-2.5-.1-3.9-.1-1,0-1.8.8-1.9,1.8,0,1.2-.1,2.6-.1,3.5,0,1.7-.4,3.1.7,3.9,1.2.9,3.8.6,5.2.6.6,0,1.2,0,1.6-.4.4-.4.4-1,.5-1.6,0-1.7.1-3.4.1-5.1,0-.7,0-1.5-.5-2Z"/>
          <path class="st19" d="M146,258.2c-.4-.5-1.1-.6-1.7-.6-1,0-2.5-.1-3.9-.1-1,0-1.8.8-1.9,1.8,0,1.2-.1,2.6-.1,3.5,0,1.7-.4,3.1.7,3.9,1.2.9,3.8.6,5.2.6.6,0,1.2,0,1.6-.4.4-.4.4-1,.5-1.6,0-1.7.1-3.4.1-5.1,0-.7,0-1.5-.5-2Z"/>
          <path class="st19" d="M158.3,258.2c-.4-.5-1.1-.6-1.7-.6-1,0-2.5-.1-3.9-.1-1,0-1.8.8-1.9,1.8,0,1.2-.1,2.6-.1,3.5,0,1.7-.4,3.1.7,3.9,1.2.9,3.8.6,5.2.6.6,0,1.2,0,1.6-.4.4-.4.4-1,.5-1.6,0-1.7.1-3.4.1-5.1,0-.7,0-1.5-.5-2Z"/>
          <path class="st19" d="M121.2,272.8c-.4-.5-1.1-.6-1.7-.6-1,0-2.5-.1-3.9-.1-1,0-1.8.8-1.9,1.8,0,1.2-.1,2.6-.1,3.5,0,1.7-.4,3.1.7,3.9,1.2.9,3.8.6,5.2.6.6,0,1.2,0,1.6-.4.4-.4.4-1,.5-1.6,0-1.7.1-3.4.1-5.1,0-.7,0-1.5-.5-2Z"/>
          <path class="st19" d="M133.6,272.8c-.4-.5-1.1-.6-1.7-.6-1,0-2.5-.1-3.9-.1-1,0-1.8.8-1.9,1.8,0,1.2-.1,2.6-.1,3.5,0,1.7-.4,3.1.7,3.9,1.2.9,3.8.6,5.2.6.6,0,1.2,0,1.6-.4.4-.4.4-1,.5-1.6,0-1.7.1-3.4.1-5.1,0-.7,0-1.5-.5-2Z"/>
          <path class="st19" d="M146,272.8c-.4-.5-1.1-.6-1.7-.6-1,0-2.5-.1-3.9-.1-1,0-1.8.8-1.9,1.8,0,1.2-.1,2.6-.1,3.5,0,1.7-.4,3.1.7,3.9,1.2.9,3.8.6,5.2.6.6,0,1.2,0,1.6-.4.4-.4.4-1,.5-1.6,0-1.7.1-3.4.1-5.1,0-.7,0-1.5-.5-2Z"/>
          <path class="st19" d="M158.3,272.8c-.4-.5-1.1-.6-1.7-.6-1,0-2.5-.1-3.9-.1-1,0-1.8.8-1.9,1.8,0,1.2-.1,2.6-.1,3.5,0,1.7-.4,3.1.7,3.9,1.2.9,3.8.6,5.2.6.6,0,1.2,0,1.6-.4.4-.4.4-1,.5-1.6,0-1.7.1-3.4.1-5.1,0-.7,0-1.5-.5-2Z"/>
          <path class="st19" d="M120.6,287.9c-.4-.5-1.1-.6-1.7-.6-1,0-2.5-.1-3.9-.1-1,0-1.8.8-1.9,1.8,0,1.2-.1,2.6-.1,3.5,0,1.7-.4,3.1.7,3.9,1.2.9,3.8.6,5.2.6.6,0,1.2,0,1.6-.4.4-.4.4-1,.5-1.6,0-1.7.1-3.4.1-5.1,0-.7,0-1.5-.5-2Z"/>
          <path class="st19" d="M132.9,287.9c-.4-.5-1.1-.6-1.7-.6-1,0-2.5-.1-3.9-.1-1,0-1.8.8-1.9,1.8,0,1.2-.1,2.6-.1,3.5,0,1.7-.4,3.1.7,3.9,1.2.9,3.8.6,5.2.6.6,0,1.2,0,1.6-.4.4-.4.4-1,.5-1.6,0-1.7.1-3.4.1-5.1,0-.7,0-1.5-.5-2Z"/>
          <path class="st19" d="M145.3,287.9c-.4-.5-1.1-.6-1.7-.6-1,0-2.5-.1-3.9-.1-1,0-1.8.8-1.9,1.8,0,1.2-.1,2.6-.1,3.5,0,1.7-.4,3.1.7,3.9,1.2.9,3.8.6,5.2.6.6,0,1.2,0,1.6-.4.4-.4.4-1,.5-1.6,0-1.7.1-3.4.1-5.1,0-.7,0-1.5-.5-2Z"/>
          <path class="st19" d="M157.7,287.9c-.4-.5-1.1-.6-1.7-.6-1,0-2.5-.1-3.9-.1-1,0-1.8.8-1.9,1.8,0,1.2-.1,2.6-.1,3.5,0,1.7-.4,3.1.7,3.9,1.2.9,3.8.6,5.2.6.6,0,1.2,0,1.6-.4.4-.4.4-1,.5-1.6,0-1.7.1-3.4.1-5.1,0-.7,0-1.5-.5-2Z"/>
          <path class="st19" d="M120.6,302.5c-.4-.5-1.1-.6-1.7-.6-1,0-2.5-.1-3.9-.1-1,0-1.8.8-1.9,1.8,0,1.2-.1,2.6-.1,3.5,0,1.7-.4,3.1.7,3.9,1.2.9,3.8.6,5.2.6.6,0,1.2,0,1.6-.4.4-.4.4-1,.5-1.6,0-1.7.1-3.4.1-5.1,0-.7,0-1.5-.5-2Z"/>
          <path class="st19" d="M132.9,302.5c-.4-.5-1.1-.6-1.7-.6-1,0-2.5-.1-3.9-.1-1,0-1.8.8-1.9,1.8,0,1.2-.1,2.6-.1,3.5,0,1.7-.4,3.1.7,3.9,1.2.9,3.8.6,5.2.6.6,0,1.2,0,1.6-.4.4-.4.4-1,.5-1.6,0-1.7.1-3.4.1-5.1,0-.7,0-1.5-.5-2Z"/>
          <path class="st19" d="M145.3,302.5c-.4-.5-1.1-.6-1.7-.6-1,0-2.5-.1-3.9-.1-1,0-1.8.8-1.9,1.8,0,1.2-.1,2.6-.1,3.5,0,1.7-.4,3.1.7,3.9,1.2.9,3.8.6,5.2.6.6,0,1.2,0,1.6-.4.4-.4.4-1,.5-1.6,0-1.7.1-3.4.1-5.1,0-.7,0-1.5-.5-2Z"/>
          <path class="st19" d="M157.7,302.5c-.4-.5-1.1-.6-1.7-.6-1,0-2.5-.1-3.9-.1-1,0-1.8.8-1.9,1.8,0,1.2-.1,2.6-.1,3.5,0,1.7-.4,3.1.7,3.9,1.2.9,3.8.6,5.2.6.6,0,1.2,0,1.6-.4.4-.4.4-1,.5-1.6,0-1.7.1-3.4.1-5.1,0-.7,0-1.5-.5-2Z"/>
          <path class="st19" d="M120.6,317.3c-.4-.5-1.1-.6-1.7-.6-1,0-2.5-.1-3.9-.1-1,0-1.8.8-1.9,1.8,0,1.2-.1,2.6-.1,3.5,0,1.7-.4,3.1.7,3.9,1.2.9,3.8.6,5.2.6.6,0,1.2,0,1.6-.4.4-.4.4-1,.5-1.6,0-1.7.1-3.4.1-5.1,0-.7,0-1.5-.5-2Z"/>
          <path class="st19" d="M132.9,317.3c-.4-.5-1.1-.6-1.7-.6-1,0-2.5-.1-3.9-.1-1,0-1.8.8-1.9,1.8,0,1.2-.1,2.6-.1,3.5,0,1.7-.4,3.1.7,3.9,1.2.9,3.8.6,5.2.6.6,0,1.2,0,1.6-.4.4-.4.4-1,.5-1.6,0-1.7.1-3.4.1-5.1,0-.7,0-1.5-.5-2Z"/>
          <path class="st19" d="M145.3,317.3c-.4-.5-1.1-.6-1.7-.6-1,0-2.5-.1-3.9-.1-1,0-1.8.8-1.9,1.8,0,1.2-.1,2.6-.1,3.5,0,1.7-.4,3.1.7,3.9,1.2.9,3.8.6,5.2.6.6,0,1.2,0,1.6-.4.4-.4.4-1,.5-1.6,0-1.7.1-3.4.1-5.1,0-.7,0-1.5-.5-2Z"/>
          <path class="st19" d="M157.7,317.3c-.4-.5-1.1-.6-1.7-.6-1,0-2.5-.1-3.9-.1-1,0-1.8.8-1.9,1.8,0,1.2-.1,2.6-.1,3.5,0,1.7-.4,3.1.7,3.9,1.2.9,3.8.6,5.2.6.6,0,1.2,0,1.6-.4.4-.4.4-1,.5-1.6,0-1.7.1-3.4.1-5.1,0-.7,0-1.5-.5-2Z"/>
        </g>
        <g>
          <path class="st0" d="M436.8,290.7s0,0,0,0c-2.2,3.6-4.8,7-7.7,10.2-.5.6-1,1.1-1.6,1.7-2.1,2.1-4.3,4-6.6,5.8-5.4,4.2-11.4,7.6-17.7,10.4-2.8,1.3-5.7,2.4-8.7,3.4-1.5.5-3.1,1.1-4.7,1.5-2.5.8-5,1.5-7.6,2.2-4.7,1.2-9.5,2.3-14.2,3.2.4-46.2,3.3-125,3.9-159.4.2-8.3.9-18.4,4.2-20.1l56.1,1.5c2.6,0,4.9,1.9,5.6,4.6,1,3.7,1.9,9.1,2,14.2.6,27.9-1,77.4-3.2,120.8Z"/>
          <path class="st19" d="M390.3,160.3c-.5-.5-1.2-.6-1.9-.7-1.1,0-2.7-.2-4.2-.2-1.1,0-1.9.9-2,2,0,1.3-.1,2.8-.2,3.7,0,1.8-.4,3.3.7,4.2,1.3,1,4,.6,5.6.7.6,0,1.3,0,1.7-.4.4-.4.5-1.1.5-1.7,0-1.8.1-3.6.1-5.4,0-.7,0-1.6-.5-2.1Z"/>
          <path class="st19" d="M403.5,160.3c-.5-.5-1.2-.6-1.9-.7-1.1,0-2.7-.2-4.2-.2-1.1,0-1.9.9-2,2,0,1.3-.1,2.8-.2,3.7,0,1.8-.4,3.3.7,4.2,1.3,1,4,.6,5.6.7.6,0,1.3,0,1.7-.4.4-.4.5-1.1.5-1.7,0-1.8.1-3.6.1-5.4,0-.7,0-1.6-.5-2.1Z"/>
          <path class="st19" d="M416.7,160.3c-.5-.5-1.2-.6-1.9-.7-1.1,0-2.7-.2-4.2-.2-1.1,0-1.9.9-2,2,0,1.3-.1,2.8-.2,3.7,0,1.8-.4,3.3.7,4.2,1.3,1,4,.6,5.6.7.6,0,1.3,0,1.7-.4.4-.4.5-1.1.5-1.7,0-1.8.1-3.6.1-5.4,0-.7,0-1.6-.5-2.1Z"/>
          <path class="st19" d="M429.8,160.3c-.5-.5-1.2-.6-1.9-.7-1.1,0-2.7-.2-4.2-.2-1.1,0-1.9.9-2,2,0,1.3-.1,2.8-.2,3.7,0,1.8-.4,3.3.7,4.2,1.3,1,4,.6,5.6.7.6,0,1.3,0,1.7-.4.4-.4.5-1.1.5-1.7,0-1.8.1-3.6.1-5.4,0-.7,0-1.6-.5-2.1Z"/>
          <path class="st19" d="M390.3,175.9c-.5-.5-1.2-.6-1.9-.7-1.1,0-2.7-.2-4.2-.2-1.1,0-1.9.9-2,2,0,1.3-.1,2.8-.2,3.7,0,1.8-.4,3.3.7,4.2,1.3,1,4,.6,5.6.7.6,0,1.3,0,1.7-.4.4-.4.5-1.1.5-1.7,0-1.8.1-3.6.1-5.4,0-.7,0-1.6-.5-2.1Z"/>
          <path class="st19" d="M403.5,175.9c-.5-.5-1.2-.6-1.9-.7-1.1,0-2.7-.2-4.2-.2-1.1,0-1.9.9-2,2,0,1.3-.1,2.8-.2,3.7,0,1.8-.4,3.3.7,4.2,1.3,1,4,.6,5.6.7.6,0,1.3,0,1.7-.4.4-.4.5-1.1.5-1.7,0-1.8.1-3.6.1-5.4,0-.7,0-1.6-.5-2.1Z"/>
          <path class="st19" d="M416.7,175.9c-.5-.5-1.2-.6-1.9-.7-1.1,0-2.7-.2-4.2-.2-1.1,0-1.9.9-2,2,0,1.3-.1,2.8-.2,3.7,0,1.8-.4,3.3.7,4.2,1.3,1,4,.6,5.6.7.6,0,1.3,0,1.7-.4.4-.4.5-1.1.5-1.7,0-1.8.1-3.6.1-5.4,0-.7,0-1.6-.5-2.1Z"/>
          <path class="st19" d="M429.8,175.9c-.5-.5-1.2-.6-1.9-.7-1.1,0-2.7-.2-4.2-.2-1.1,0-1.9.9-2,2,0,1.3-.1,2.8-.2,3.7,0,1.8-.4,3.3.7,4.2,1.3,1,4,.6,5.6.7.6,0,1.3,0,1.7-.4.4-.4.5-1.1.5-1.7,0-1.8.1-3.6.1-5.4,0-.7,0-1.6-.5-2.1Z"/>
          <path class="st19" d="M390.3,191.5c-.5-.5-1.2-.6-1.9-.7-1.1,0-2.7-.2-4.2-.2-1.1,0-1.9.9-2,2,0,1.3-.1,2.8-.2,3.7,0,1.8-.4,3.3.7,4.2,1.3,1,4,.6,5.6.7.6,0,1.3,0,1.7-.4.4-.4.5-1.1.5-1.7,0-1.8.1-3.6.1-5.4,0-.7,0-1.6-.5-2.1Z"/>
          <path class="st19" d="M403.5,191.5c-.5-.5-1.2-.6-1.9-.7-1.1,0-2.7-.2-4.2-.2-1.1,0-1.9.9-2,2,0,1.3-.1,2.8-.2,3.7,0,1.8-.4,3.3.7,4.2,1.3,1,4,.6,5.6.7.6,0,1.3,0,1.7-.4.4-.4.5-1.1.5-1.7,0-1.8.1-3.6.1-5.4,0-.7,0-1.6-.5-2.1Z"/>
          <path class="st19" d="M416.7,191.5c-.5-.5-1.2-.6-1.9-.7-1.1,0-2.7-.2-4.2-.2-1.1,0-1.9.9-2,2,0,1.3-.1,2.8-.2,3.7,0,1.8-.4,3.3.7,4.2,1.3,1,4,.6,5.6.7.6,0,1.3,0,1.7-.4.4-.4.5-1.1.5-1.7,0-1.8.1-3.6.1-5.4,0-.7,0-1.6-.5-2.1Z"/>
          <path class="st19" d="M429.8,191.5c-.5-.5-1.2-.6-1.9-.7-1.1,0-2.7-.2-4.2-.2-1.1,0-1.9.9-2,2,0,1.3-.1,2.8-.2,3.7,0,1.8-.4,3.3.7,4.2,1.3,1,4,.6,5.6.7.6,0,1.3,0,1.7-.4.4-.4.5-1.1.5-1.7,0-1.8.1-3.6.1-5.4,0-.7,0-1.6-.5-2.1Z"/>
          <path class="st19" d="M390.3,207.1c-.5-.5-1.2-.6-1.9-.7-1.1,0-2.7-.2-4.2-.2-1.1,0-1.9.9-2,2,0,1.3-.1,2.8-.2,3.7,0,1.8-.4,3.3.7,4.2,1.3,1,4,.6,5.6.7.6,0,1.3,0,1.7-.4.4-.4.5-1.1.5-1.7,0-1.8.1-3.6.1-5.4,0-.7,0-1.6-.5-2.1Z"/>
          <path class="st19" d="M403.5,207.1c-.5-.5-1.2-.6-1.9-.7-1.1,0-2.7-.2-4.2-.2-1.1,0-1.9.9-2,2,0,1.3-.1,2.8-.2,3.7,0,1.8-.4,3.3.7,4.2,1.3,1,4,.6,5.6.7.6,0,1.3,0,1.7-.4.4-.4.5-1.1.5-1.7,0-1.8.1-3.6.1-5.4,0-.7,0-1.6-.5-2.1Z"/>
          <path class="st19" d="M416.7,207.1c-.5-.5-1.2-.6-1.9-.7-1.1,0-2.7-.2-4.2-.2-1.1,0-1.9.9-2,2,0,1.3-.1,2.8-.2,3.7,0,1.8-.4,3.3.7,4.2,1.3,1,4,.6,5.6.7.6,0,1.3,0,1.7-.4.4-.4.5-1.1.5-1.7,0-1.8.1-3.6.1-5.4,0-.7,0-1.6-.5-2.1Z"/>
          <path class="st19" d="M429.8,207.1c-.5-.5-1.2-.6-1.9-.7-1.1,0-2.7-.2-4.2-.2-1.1,0-1.9.9-2,2,0,1.3-.1,2.8-.2,3.7,0,1.8-.4,3.3.7,4.2,1.3,1,4,.6,5.6.7.6,0,1.3,0,1.7-.4.4-.4.5-1.1.5-1.7,0-1.8.1-3.6.1-5.4,0-.7,0-1.6-.5-2.1Z"/>
          <path class="st19" d="M390.3,222.6c-.5-.5-1.2-.6-1.9-.7-1.1,0-2.7-.2-4.2-.2-1.1,0-1.9.9-2,2,0,1.3-.1,2.8-.2,3.7,0,1.8-.4,3.3.7,4.2,1.3,1,4,.6,5.6.7.6,0,1.3,0,1.7-.4.4-.4.5-1.1.5-1.7,0-1.8.1-3.6.1-5.4,0-.7,0-1.6-.5-2.1Z"/>
          <path class="st19" d="M403.5,222.6c-.5-.5-1.2-.6-1.9-.7-1.1,0-2.7-.2-4.2-.2-1.1,0-1.9.9-2,2,0,1.3-.1,2.8-.2,3.7,0,1.8-.4,3.3.7,4.2,1.3,1,4,.6,5.6.7.6,0,1.3,0,1.7-.4.4-.4.5-1.1.5-1.7,0-1.8.1-3.6.1-5.4,0-.7,0-1.6-.5-2.1Z"/>
          <path class="st19" d="M416.7,222.6c-.5-.5-1.2-.6-1.9-.7-1.1,0-2.7-.2-4.2-.2-1.1,0-1.9.9-2,2,0,1.3-.1,2.8-.2,3.7,0,1.8-.4,3.3.7,4.2,1.3,1,4,.6,5.6.7.6,0,1.3,0,1.7-.4.4-.4.5-1.1.5-1.7,0-1.8.1-3.6.1-5.4,0-.7,0-1.6-.5-2.1Z"/>
          <path class="st19" d="M429.8,222.6c-.5-.5-1.2-.6-1.9-.7-1.1,0-2.7-.2-4.2-.2-1.1,0-1.9.9-2,2,0,1.3-.1,2.8-.2,3.7,0,1.8-.4,3.3.7,4.2,1.3,1,4,.6,5.6.7.6,0,1.3,0,1.7-.4.4-.4.5-1.1.5-1.7,0-1.8.1-3.6.1-5.4,0-.7,0-1.6-.5-2.1Z"/>
          <path class="st19" d="M390.3,238.2c-.5-.5-1.2-.6-1.9-.7-1.1,0-2.7-.2-4.2-.2-1.1,0-1.9.9-2,2,0,1.3-.1,2.8-.2,3.7,0,1.8-.4,3.3.7,4.2,1.3,1,4,.6,5.6.7.6,0,1.3,0,1.7-.4.4-.4.5-1.1.5-1.7,0-1.8.1-3.6.1-5.4,0-.7,0-1.6-.5-2.1Z"/>
          <path class="st19" d="M403.5,238.2c-.5-.5-1.2-.6-1.9-.7-1.1,0-2.7-.2-4.2-.2-1.1,0-1.9.9-2,2,0,1.3-.1,2.8-.2,3.7,0,1.8-.4,3.3.7,4.2,1.3,1,4,.6,5.6.7.6,0,1.3,0,1.7-.4.4-.4.5-1.1.5-1.7,0-1.8.1-3.6.1-5.4,0-.7,0-1.6-.5-2.1Z"/>
          <path class="st19" d="M416.7,238.2c-.5-.5-1.2-.6-1.9-.7-1.1,0-2.7-.2-4.2-.2-1.1,0-1.9.9-2,2,0,1.3-.1,2.8-.2,3.7,0,1.8-.4,3.3.7,4.2,1.3,1,4,.6,5.6.7.6,0,1.3,0,1.7-.4.4-.4.5-1.1.5-1.7,0-1.8.1-3.6.1-5.4,0-.7,0-1.6-.5-2.1Z"/>
          <path class="st19" d="M429.8,238.2c-.5-.5-1.2-.6-1.9-.7-1.1,0-2.7-.2-4.2-.2-1.1,0-1.9.9-2,2,0,1.3-.1,2.8-.2,3.7,0,1.8-.4,3.3.7,4.2,1.3,1,4,.6,5.6.7.6,0,1.3,0,1.7-.4.4-.4.5-1.1.5-1.7,0-1.8.1-3.6.1-5.4,0-.7,0-1.6-.5-2.1Z"/>
          <path class="st19" d="M390.3,253.8c-.5-.5-1.2-.6-1.9-.7-1.1,0-2.7-.2-4.2-.2-1.1,0-1.9.9-2,2,0,1.3-.1,2.8-.2,3.7,0,1.8-.4,3.3.7,4.2,1.3,1,4,.6,5.6.7.6,0,1.3,0,1.7-.4.4-.4.5-1.1.5-1.7,0-1.8.1-3.6.1-5.4,0-.7,0-1.6-.5-2.1Z"/>
          <path class="st19" d="M403.5,253.8c-.5-.5-1.2-.6-1.9-.7-1.1,0-2.7-.2-4.2-.2-1.1,0-1.9.9-2,2,0,1.3-.1,2.8-.2,3.7,0,1.8-.4,3.3.7,4.2,1.3,1,4,.6,5.6.7.6,0,1.3,0,1.7-.4.4-.4.5-1.1.5-1.7,0-1.8.1-3.6.1-5.4,0-.7,0-1.6-.5-2.1Z"/>
          <path class="st19" d="M416.7,253.8c-.5-.5-1.2-.6-1.9-.7-1.1,0-2.7-.2-4.2-.2-1.1,0-1.9.9-2,2,0,1.3-.1,2.8-.2,3.7,0,1.8-.4,3.3.7,4.2,1.3,1,4,.6,5.6.7.6,0,1.3,0,1.7-.4.4-.4.5-1.1.5-1.7,0-1.8.1-3.6.1-5.4,0-.7,0-1.6-.5-2.1Z"/>
          <path class="st19" d="M429.8,253.8c-.5-.5-1.2-.6-1.9-.7-1.1,0-2.7-.2-4.2-.2-1.1,0-1.9.9-2,2,0,1.3-.1,2.8-.2,3.7,0,1.8-.4,3.3.7,4.2,1.3,1,4,.6,5.6.7.6,0,1.3,0,1.7-.4.4-.4.5-1.1.5-1.7,0-1.8.1-3.6.1-5.4,0-.7,0-1.6-.5-2.1Z"/>
          <path class="st19" d="M390.3,269.4c-.5-.5-1.2-.6-1.9-.7-1.1,0-2.7-.2-4.2-.2-1.1,0-1.9.9-2,2,0,1.3-.1,2.8-.2,3.7,0,1.8-.4,3.3.7,4.2,1.3,1,4,.6,5.6.7.6,0,1.3,0,1.7-.4.4-.4.5-1.1.5-1.7,0-1.8.1-3.6.1-5.4,0-.7,0-1.6-.5-2.1Z"/>
          <path class="st19" d="M403.5,269.4c-.5-.5-1.2-.6-1.9-.7-1.1,0-2.7-.2-4.2-.2-1.1,0-1.9.9-2,2,0,1.3-.1,2.8-.2,3.7,0,1.8-.4,3.3.7,4.2,1.3,1,4,.6,5.6.7.6,0,1.3,0,1.7-.4.4-.4.5-1.1.5-1.7,0-1.8.1-3.6.1-5.4,0-.7,0-1.6-.5-2.1Z"/>
          <path class="st19" d="M416.7,269.4c-.5-.5-1.2-.6-1.9-.7-1.1,0-2.7-.2-4.2-.2-1.1,0-1.9.9-2,2,0,1.3-.1,2.8-.2,3.7,0,1.8-.4,3.3.7,4.2,1.3,1,4,.6,5.6.7.6,0,1.3,0,1.7-.4.4-.4.5-1.1.5-1.7,0-1.8.1-3.6.1-5.4,0-.7,0-1.6-.5-2.1Z"/>
          <path class="st19" d="M429.8,269.4c-.5-.5-1.2-.6-1.9-.7-1.1,0-2.7-.2-4.2-.2-1.1,0-1.9.9-2,2,0,1.3-.1,2.8-.2,3.7,0,1.8-.4,3.3.7,4.2,1.3,1,4,.6,5.6.7.6,0,1.3,0,1.7-.4.4-.4.5-1.1.5-1.7,0-1.8.1-3.6.1-5.4,0-.7,0-1.6-.5-2.1Z"/>
          <path class="st19" d="M389.6,285.4c-.5-.5-1.2-.6-1.9-.7-1.1,0-2.7-.2-4.2-.2-1.1,0-1.9.9-2,2,0,1.3-.1,2.8-.2,3.7,0,1.8-.4,3.3.7,4.2,1.3,1,4,.6,5.6.7.6,0,1.3,0,1.7-.4.4-.4.5-1.1.5-1.7,0-1.8.1-3.6.1-5.4,0-.7,0-1.6-.5-2.1Z"/>
          <path class="st19" d="M402.8,285.4c-.5-.5-1.2-.6-1.9-.7-1.1,0-2.7-.2-4.2-.2-1.1,0-1.9.9-2,2,0,1.3-.1,2.8-.2,3.7,0,1.8-.4,3.3.7,4.2,1.3,1,4,.6,5.6.7.6,0,1.3,0,1.7-.4.4-.4.5-1.1.5-1.7,0-1.8.1-3.6.1-5.4,0-.7,0-1.6-.5-2.1Z"/>
          <path class="st19" d="M416,285.4c-.5-.5-1.2-.6-1.9-.7-1.1,0-2.7-.2-4.2-.2-1.1,0-1.9.9-2,2,0,1.3-.1,2.8-.2,3.7,0,1.8-.4,3.3.7,4.2,1.3,1,4,.6,5.6.7.6,0,1.3,0,1.7-.4.4-.4.5-1.1.5-1.7,0-1.8.1-3.6.1-5.4,0-.7,0-1.6-.5-2.1Z"/>
          <path class="st19" d="M429.1,285.4c-.5-.5-1.2-.6-1.9-.7-1.1,0-2.7-.2-4.2-.2-1.1,0-1.9.9-2,2,0,1.3-.1,2.8-.2,3.7,0,1.8-.4,3.3.7,4.2,1.3,1,4,.6,5.6.7.6,0,1.3,0,1.7-.4.4-.4.5-1.1.5-1.7,0-1.8.1-3.6.1-5.4,0-.7,0-1.6-.5-2.1Z"/>
          <path class="st19" d="M389.6,301c-.5-.5-1.2-.6-1.9-.7-1.1,0-2.7-.2-4.2-.2-1.1,0-1.9.9-2,2,0,1.3-.1,2.8-.2,3.7,0,1.8-.4,3.3.7,4.2,1.3,1,4,.6,5.6.7.6,0,1.3,0,1.7-.4.4-.4.5-1.1.5-1.7,0-1.8.1-3.6.1-5.4,0-.7,0-1.6-.5-2.1Z"/>
          <path class="st19" d="M402.8,301c-.5-.5-1.2-.6-1.9-.7-1.1,0-2.7-.2-4.2-.2-1.1,0-1.9.9-2,2,0,1.3-.1,2.8-.2,3.7,0,1.8-.4,3.3.7,4.2,1.3,1,4,.6,5.6.7.6,0,1.3,0,1.7-.4.4-.4.5-1.1.5-1.7,0-1.8.1-3.6.1-5.4,0-.7,0-1.6-.5-2.1Z"/>
          <path class="st19" d="M416,301c-.5-.5-1.2-.6-1.9-.7-1.1,0-2.7-.2-4.2-.2-1.1,0-1.9.9-2,2,0,1.3-.1,2.8-.2,3.7,0,1.8-.4,3.3.7,4.2,1.3,1,4,.6,5.6.7.6,0,1.3,0,1.7-.4.4-.4.5-1.1.5-1.7,0-1.8.1-3.6.1-5.4,0-.7,0-1.6-.5-2.1Z"/>
          <path class="st19" d="M429.1,300.9c-.5.6-1,1.1-1.6,1.7-2.1,2.1-4.3,4-6.6,5.8,0-.8,0-1.6,0-2.6,0-.9,0-2.4.2-3.7,0-1.1.9-2,2-2,1.4,0,3,0,4.1.2.6,0,1.3.2,1.8.6Z"/>
          <path class="st19" d="M382.3,325.9c0,0-.1,0-.2-.1-1.1-.9-.7-2.4-.7-4.2,0-.9,0-2.4.2-3.7,0-1.1.9-2,2-2,1.4,0,3.1,0,4.2.2.7,0,1.4.2,1.8.7.5.5.5,1.4.5,2.1,0,1.6,0,3.3-.1,4.9l-7.6,2.2Z"/>
          <path class="st19" d="M403.3,318.8c-2.8,1.3-5.7,2.4-8.7,3.4,0-.2,0-.4,0-.6,0-.9,0-2.4.2-3.7,0-1.1.9-2,2-2,1.4,0,3.1,0,4.1.2.7,0,1.4.2,1.9.7.5.5.5,1.3.5,2.1Z"/>
        </g>
        <g>
          <path class="st19" d="M69.9,252.3c-.3-.3-.8-.4-1.2-.4-.7,0-1.8,0-2.8-.1-.7,0-1.3.6-1.3,1.3,0,.8,0,1.8-.1,2.4,0,1.2-.3,2.1.5,2.7.8.6,2.7.4,3.7.4.4,0,.9,0,1.1-.3.3-.3.3-.7.3-1.1,0-1.2,0-2.3.1-3.5,0-.5,0-1-.3-1.4Z"/>
          <path class="st19" d="M78.7,252.3c-.3-.3-.8-.4-1.2-.4-.7,0-1.8,0-2.8-.1-.7,0-1.3.6-1.3,1.3,0,.8,0,1.8-.1,2.4,0,1.2-.3,2.1.5,2.7.8.6,2.7.4,3.7.4.4,0,.9,0,1.1-.3.3-.3.3-.7.3-1.1,0-1.2,0-2.3.1-3.5,0-.5,0-1-.3-1.4Z"/>
          <path class="st19" d="M87.5,252.3c-.3-.3-.8-.4-1.2-.4-.7,0-1.8,0-2.8-.1-.7,0-1.3.6-1.3,1.3,0,.8,0,1.8-.1,2.4,0,1.2-.3,2.1.5,2.7.8.6,2.7.4,3.7.4.4,0,.9,0,1.1-.3.3-.3.3-.7.3-1.1,0-1.2,0-2.3.1-3.5,0-.5,0-1-.3-1.4Z"/>
          <path class="st19" d="M96.4,252.3c-.3-.3-.8-.4-1.2-.4-.7,0-1.8,0-2.8-.1-.7,0-1.3.6-1.3,1.3,0,.8,0,1.8-.1,2.4,0,1.2-.3,2.1.5,2.7.8.6,2.7.4,3.7.4.4,0,.9,0,1.1-.3.3-.3.3-.7.3-1.1,0-1.2,0-2.3.1-3.5,0-.5,0-1-.3-1.4Z"/>
          <path class="st19" d="M69.9,262.4c-.3-.3-.8-.4-1.2-.4-.7,0-1.8,0-2.8-.1-.7,0-1.3.6-1.3,1.3,0,.8,0,1.8-.1,2.4,0,1.2-.3,2.1.5,2.7.8.6,2.7.4,3.7.4.4,0,.9,0,1.1-.3.3-.3.3-.7.3-1.1,0-1.2,0-2.3.1-3.5,0-.5,0-1-.3-1.4Z"/>
          <path class="st19" d="M78.7,262.4c-.3-.3-.8-.4-1.2-.4-.7,0-1.8,0-2.8-.1-.7,0-1.3.6-1.3,1.3,0,.8,0,1.8-.1,2.4,0,1.2-.3,2.1.5,2.7.8.6,2.7.4,3.7.4.4,0,.9,0,1.1-.3.3-.3.3-.7.3-1.1,0-1.2,0-2.3.1-3.5,0-.5,0-1-.3-1.4Z"/>
          <path class="st19" d="M87.5,262.4c-.3-.3-.8-.4-1.2-.4-.7,0-1.8,0-2.8-.1-.7,0-1.3.6-1.3,1.3,0,.8,0,1.8-.1,2.4,0,1.2-.3,2.1.5,2.7.8.6,2.7.4,3.7.4.4,0,.9,0,1.1-.3.3-.3.3-.7.3-1.1,0-1.2,0-2.3.1-3.5,0-.5,0-1-.3-1.4Z"/>
          <path class="st19" d="M96.4,262.4c-.3-.3-.8-.4-1.2-.4-.7,0-1.8,0-2.8-.1-.7,0-1.3.6-1.3,1.3,0,.8,0,1.8-.1,2.4,0,1.2-.3,2.1.5,2.7.8.6,2.7.4,3.7.4.4,0,.9,0,1.1-.3.3-.3.3-.7.3-1.1,0-1.2,0-2.3.1-3.5,0-.5,0-1-.3-1.4Z"/>
          <path class="st19" d="M69.9,272.4c-.3-.3-.8-.4-1.2-.4-.7,0-1.8,0-2.8-.1-.7,0-1.3.6-1.3,1.3,0,.8,0,1.8-.1,2.4,0,1.2-.3,2.1.5,2.7.8.6,2.7.4,3.7.4.4,0,.9,0,1.1-.3.3-.3.3-.7.3-1.1,0-1.2,0-2.3.1-3.5,0-.5,0-1-.3-1.4Z"/>
          <path class="st19" d="M78.7,272.4c-.3-.3-.8-.4-1.2-.4-.7,0-1.8,0-2.8-.1-.7,0-1.3.6-1.3,1.3,0,.8,0,1.8-.1,2.4,0,1.2-.3,2.1.5,2.7.8.6,2.7.4,3.7.4.4,0,.9,0,1.1-.3.3-.3.3-.7.3-1.1,0-1.2,0-2.3.1-3.5,0-.5,0-1-.3-1.4Z"/>
          <path class="st19" d="M87.5,272.4c-.3-.3-.8-.4-1.2-.4-.7,0-1.8,0-2.8-.1-.7,0-1.3.6-1.3,1.3,0,.8,0,1.8-.1,2.4,0,1.2-.3,2.1.5,2.7.8.6,2.7.4,3.7.4.4,0,.9,0,1.1-.3.3-.3.3-.7.3-1.1,0-1.2,0-2.3.1-3.5,0-.5,0-1-.3-1.4Z"/>
          <path class="st19" d="M96.4,272.4c-.3-.3-.8-.4-1.2-.4-.7,0-1.8,0-2.8-.1-.7,0-1.3.6-1.3,1.3,0,.8,0,1.8-.1,2.4,0,1.2-.3,2.1.5,2.7.8.6,2.7.4,3.7.4.4,0,.9,0,1.1-.3.3-.3.3-.7.3-1.1,0-1.2,0-2.3.1-3.5,0-.5,0-1-.3-1.4Z"/>
          <path class="st19" d="M69.9,282.5c-.3-.3-.8-.4-1.2-.4-.7,0-1.8,0-2.8-.1-.7,0-1.3.6-1.3,1.3,0,.8,0,1.8-.1,2.4,0,1.2-.3,2.1.5,2.7.8.6,2.7.4,3.7.4.4,0,.9,0,1.1-.3.3-.3.3-.7.3-1.1,0-1.2,0-2.3.1-3.5,0-.5,0-1-.3-1.4Z"/>
          <path class="st19" d="M78.7,282.5c-.3-.3-.8-.4-1.2-.4-.7,0-1.8,0-2.8-.1-.7,0-1.3.6-1.3,1.3,0,.8,0,1.8-.1,2.4,0,1.2-.3,2.1.5,2.7.8.6,2.7.4,3.7.4.4,0,.9,0,1.1-.3.3-.3.3-.7.3-1.1,0-1.2,0-2.3.1-3.5,0-.5,0-1-.3-1.4Z"/>
          <path class="st19" d="M87.5,282.5c-.3-.3-.8-.4-1.2-.4-.7,0-1.8,0-2.8-.1-.7,0-1.3.6-1.3,1.3,0,.8,0,1.8-.1,2.4,0,1.2-.3,2.1.5,2.7.8.6,2.7.4,3.7.4.4,0,.9,0,1.1-.3.3-.3.3-.7.3-1.1,0-1.2,0-2.3.1-3.5,0-.5,0-1-.3-1.4Z"/>
          <path class="st19" d="M96.4,282.5c-.3-.3-.8-.4-1.2-.4-.7,0-1.8,0-2.8-.1-.7,0-1.3.6-1.3,1.3,0,.8,0,1.8-.1,2.4,0,1.2-.3,2.1.5,2.7.8.6,2.7.4,3.7.4.4,0,.9,0,1.1-.3.3-.3.3-.7.3-1.1,0-1.2,0-2.3.1-3.5,0-.5,0-1-.3-1.4Z"/>
          <path class="st19" d="M70.2,293.9c0,1.2,0,2.3,0,3.5,0,.4,0,.8-.3,1.1-.3.3-.7.3-1.2.3s-.7,0-1,0c-1.2-1.1-2.3-2.2-3.2-3.2h0c0-.6,0-1.5.1-2.4,0-.7.6-1.3,1.3-1.3s2.1,0,2.8.1c.4,0,.9,0,1.2.4.3.4.3.9.3,1.4Z"/>
          <path class="st19" d="M78.7,292.5c-.3-.3-.8-.4-1.2-.4-.7,0-1.8,0-2.8-.1-.7,0-1.3.6-1.3,1.3,0,.8,0,1.8-.1,2.4,0,1.2-.3,2.1.5,2.7.8.6,2.7.4,3.7.4.4,0,.9,0,1.1-.3.3-.3.3-.7.3-1.1,0-1.2,0-2.3.1-3.5,0-.5,0-1-.3-1.4Z"/>
          <path class="st19" d="M87.5,292.5c-.3-.3-.8-.4-1.2-.4-.7,0-1.8,0-2.8-.1-.7,0-1.3.6-1.3,1.3,0,.8,0,1.8-.1,2.4,0,1.2-.3,2.1.5,2.7.8.6,2.7.4,3.7.4.4,0,.9,0,1.1-.3.3-.3.3-.7.3-1.1,0-1.2,0-2.3.1-3.5,0-.5,0-1-.3-1.4Z"/>
          <path class="st19" d="M96.4,292.5c-.3-.3-.8-.4-1.2-.4-.7,0-1.8,0-2.8-.1-.7,0-1.3.6-1.3,1.3,0,.8,0,1.8-.1,2.4,0,1.2-.3,2.1.5,2.7.8.6,2.7.4,3.7.4.4,0,.9,0,1.1-.3.3-.3.3-.7.3-1.1,0-1.2,0-2.3.1-3.5,0-.5,0-1-.3-1.4Z"/>
          <path class="st19" d="M79,303.9c0,1.2,0,2.3-.1,3.5,0,.3,0,.6-.2.8-1.9-1.4-3.7-2.9-5.5-4.4,0-.2,0-.4,0-.6,0-.7.6-1.3,1.3-1.3,1,0,2,0,2.8,0,.4,0,.9.1,1.2.4.3.3.3.9.3,1.4Z"/>
          <path class="st19" d="M87.5,302.6c-.3-.3-.8-.4-1.2-.4-.7,0-1.8,0-2.8-.1-.7,0-1.3.6-1.3,1.3,0,.8,0,1.8-.1,2.4,0,1.2-.3,2.1.5,2.7.8.6,2.7.4,3.7.4.4,0,.9,0,1.1-.3.3-.3.3-.7.3-1.1,0-1.2,0-2.3.1-3.5,0-.5,0-1-.3-1.4Z"/>
          <path class="st19" d="M96.4,302.6c-.3-.3-.8-.4-1.2-.4-.7,0-1.8,0-2.8-.1-.7,0-1.3.6-1.3,1.3,0,.8,0,1.8-.1,2.4,0,1.2-.3,2.1.5,2.7.8.6,2.7.4,3.7.4.4,0,.9,0,1.1-.3.3-.3.3-.7.3-1.1,0-1.2,0-2.3.1-3.5,0-.5,0-1-.3-1.4Z"/>
          <path class="st19" d="M87.9,314c0,.2,0,.5,0,.8-1.3-.9-2.6-1.7-3.9-2.6.8,0,1.7,0,2.3,0,.4,0,.9,0,1.2.4.3.4.3.9.3,1.4Z"/>
          <path class="st19" d="M96.7,314c0,1.2,0,2.3-.1,3.5,0,.4,0,.8-.3,1.1-.3.3-.7.3-1.1.3s-.6,0-.9,0c-1,0-2.2,0-2.9-.4-.5-.4-.6-1-.5-1.7,0-.3,0-.6,0-1,0-.6,0-1.5.1-2.4,0-.7.6-1.3,1.3-1.3s2.1,0,2.8.1c.4,0,.9,0,1.2.4.3.4.3.9.3,1.4Z"/>
        </g>
        <g>
          <path class="st0" d="M305.9,337.8c-18.5,1.7-37,2.7-55.5,3.6-.2,0-.5,0-.7,0,0-3.5-.1-7.2-.2-10.9h0c-.4-34.6-.4-77.3,0-111.5h0c0-.6,0-1.2,0-1.7,0-4.4.3-9.2.8-13.2.5-4.1,1.4-7.3,2.8-8.2l48,1.5c2.3,0,4.2,2.1,4.8,4.9.9,3.9,1.6,9.7,1.7,15.1.7,39.6.3,80.5-1.8,120.4Z"/>
          <path class="st19" d="M265.2,207.3c-.4-.5-1-.6-1.6-.7-.9,0-2.3-.2-3.6-.2-.9,0-1.7.9-1.7,2.1,0,1.4-.1,3-.1,3.9,0,1.9-.4,3.5.6,4.5,1.1,1,3.4.7,4.8.7.5,0,1.1,0,1.5-.5.4-.5.4-1.2.4-1.8,0-1.9.1-3.9.1-5.8,0-.8,0-1.7-.4-2.3Z"/>
          <path class="st19" d="M276.5,207.3c-.4-.5-1-.6-1.6-.7-.9,0-2.3-.2-3.6-.2-.9,0-1.7.9-1.7,2.1,0,1.4-.1,3-.1,3.9,0,1.9-.4,3.5.6,4.5,1.1,1,3.4.7,4.8.7.5,0,1.1,0,1.5-.5.4-.5.4-1.2.4-1.8,0-1.9.1-3.9.1-5.8,0-.8,0-1.7-.4-2.3Z"/>
          <path class="st19" d="M287.8,207.3c-.4-.5-1-.6-1.6-.7-.9,0-2.3-.2-3.6-.2-.9,0-1.7.9-1.7,2.1,0,1.4-.1,3-.1,3.9,0,1.9-.4,3.5.6,4.5,1.1,1,3.4.7,4.8.7.5,0,1.1,0,1.5-.5.4-.5.4-1.2.4-1.8,0-1.9.1-3.9.1-5.8,0-.8,0-1.7-.4-2.3Z"/>
          <path class="st19" d="M299.1,207.3c-.4-.5-1-.6-1.6-.7-.9,0-2.3-.2-3.6-.2-.9,0-1.7.9-1.7,2.1,0,1.4-.1,3-.1,3.9,0,1.9-.4,3.5.6,4.5,1.1,1,3.4.7,4.8.7.5,0,1.1,0,1.5-.5.4-.5.4-1.2.4-1.8,0-1.9.1-3.9.1-5.8,0-.8,0-1.7-.4-2.3Z"/>
          <path class="st19" d="M265.2,223.9c-.4-.5-1-.6-1.6-.7-.9,0-2.3-.2-3.6-.2-.9,0-1.7.9-1.7,2.1,0,1.4-.1,3-.1,3.9,0,1.9-.4,3.5.6,4.5,1.1,1,3.4.7,4.8.7.5,0,1.1,0,1.5-.5.4-.5.4-1.2.4-1.8,0-1.9.1-3.9.1-5.8,0-.8,0-1.7-.4-2.3Z"/>
          <path class="st19" d="M276.5,223.9c-.4-.5-1-.6-1.6-.7-.9,0-2.3-.2-3.6-.2-.9,0-1.7.9-1.7,2.1,0,1.4-.1,3-.1,3.9,0,1.9-.4,3.5.6,4.5,1.1,1,3.4.7,4.8.7.5,0,1.1,0,1.5-.5.4-.5.4-1.2.4-1.8,0-1.9.1-3.9.1-5.8,0-.8,0-1.7-.4-2.3Z"/>
          <path class="st19" d="M287.8,223.9c-.4-.5-1-.6-1.6-.7-.9,0-2.3-.2-3.6-.2-.9,0-1.7.9-1.7,2.1,0,1.4-.1,3-.1,3.9,0,1.9-.4,3.5.6,4.5,1.1,1,3.4.7,4.8.7.5,0,1.1,0,1.5-.5.4-.5.4-1.2.4-1.8,0-1.9.1-3.9.1-5.8,0-.8,0-1.7-.4-2.3Z"/>
          <path class="st19" d="M299.1,223.9c-.4-.5-1-.6-1.6-.7-.9,0-2.3-.2-3.6-.2-.9,0-1.7.9-1.7,2.1,0,1.4-.1,3-.1,3.9,0,1.9-.4,3.5.6,4.5,1.1,1,3.4.7,4.8.7.5,0,1.1,0,1.5-.5.4-.5.4-1.2.4-1.8,0-1.9.1-3.9.1-5.8,0-.8,0-1.7-.4-2.3Z"/>
          <path class="st19" d="M265.2,240.4c-.4-.5-1-.6-1.6-.7-.9,0-2.3-.2-3.6-.2-.9,0-1.7.9-1.7,2.1,0,1.4-.1,3-.1,3.9,0,1.9-.4,3.5.6,4.5,1.1,1,3.4.7,4.8.7.5,0,1.1,0,1.5-.5.4-.5.4-1.2.4-1.8,0-1.9.1-3.9.1-5.8,0-.8,0-1.7-.4-2.3Z"/>
          <path class="st19" d="M276.5,240.4c-.4-.5-1-.6-1.6-.7-.9,0-2.3-.2-3.6-.2-.9,0-1.7.9-1.7,2.1,0,1.4-.1,3-.1,3.9,0,1.9-.4,3.5.6,4.5,1.1,1,3.4.7,4.8.7.5,0,1.1,0,1.5-.5.4-.5.4-1.2.4-1.8,0-1.9.1-3.9.1-5.8,0-.8,0-1.7-.4-2.3Z"/>
          <path class="st19" d="M287.8,240.4c-.4-.5-1-.6-1.6-.7-.9,0-2.3-.2-3.6-.2-.9,0-1.7.9-1.7,2.1,0,1.4-.1,3-.1,3.9,0,1.9-.4,3.5.6,4.5,1.1,1,3.4.7,4.8.7.5,0,1.1,0,1.5-.5.4-.5.4-1.2.4-1.8,0-1.9.1-3.9.1-5.8,0-.8,0-1.7-.4-2.3Z"/>
          <path class="st19" d="M299.1,240.4c-.4-.5-1-.6-1.6-.7-.9,0-2.3-.2-3.6-.2-.9,0-1.7.9-1.7,2.1,0,1.4-.1,3-.1,3.9,0,1.9-.4,3.5.6,4.5,1.1,1,3.4.7,4.8.7.5,0,1.1,0,1.5-.5.4-.5.4-1.2.4-1.8,0-1.9.1-3.9.1-5.8,0-.8,0-1.7-.4-2.3Z"/>
          <path class="st19" d="M265.2,257c-.4-.5-1-.6-1.6-.7-.9,0-2.3-.2-3.6-.2-.9,0-1.7.9-1.7,2.1,0,1.4-.1,3-.1,3.9,0,1.9-.4,3.5.6,4.5,1.1,1,3.4.7,4.8.7.5,0,1.1,0,1.5-.5.4-.5.4-1.2.4-1.8,0-1.9.1-3.9.1-5.8,0-.8,0-1.7-.4-2.2Z"/>
          <path class="st19" d="M276.5,257c-.4-.5-1-.6-1.6-.7-.9,0-2.3-.2-3.6-.2-.9,0-1.7.9-1.7,2.1,0,1.4-.1,3-.1,3.9,0,1.9-.4,3.5.6,4.5,1.1,1,3.4.7,4.8.7.5,0,1.1,0,1.5-.5.4-.5.4-1.2.4-1.8,0-1.9.1-3.9.1-5.8,0-.8,0-1.7-.4-2.2Z"/>
          <path class="st19" d="M287.8,257c-.4-.5-1-.6-1.6-.7-.9,0-2.3-.2-3.6-.2-.9,0-1.7.9-1.7,2.1,0,1.4-.1,3-.1,3.9,0,1.9-.4,3.5.6,4.5,1.1,1,3.4.7,4.8.7.5,0,1.1,0,1.5-.5.4-.5.4-1.2.4-1.8,0-1.9.1-3.9.1-5.8,0-.8,0-1.7-.4-2.2Z"/>
          <path class="st19" d="M299.1,257c-.4-.5-1-.6-1.6-.7-.9,0-2.3-.2-3.6-.2-.9,0-1.7.9-1.7,2.1,0,1.4-.1,3-.1,3.9,0,1.9-.4,3.5.6,4.5,1.1,1,3.4.7,4.8.7.5,0,1.1,0,1.5-.5.4-.5.4-1.2.4-1.8,0-1.9.1-3.9.1-5.8,0-.8,0-1.7-.4-2.2Z"/>
          <path class="st19" d="M265.2,273.6c-.4-.5-1-.6-1.6-.7-.9,0-2.3-.2-3.6-.2-.9,0-1.7.9-1.7,2.1,0,1.4-.1,3-.1,3.9,0,1.9-.4,3.5.6,4.5,1.1,1,3.4.7,4.8.7.5,0,1.1,0,1.5-.5.4-.5.4-1.2.4-1.8,0-1.9.1-3.9.1-5.8,0-.8,0-1.7-.4-2.2Z"/>
          <path class="st19" d="M276.5,273.6c-.4-.5-1-.6-1.6-.7-.9,0-2.3-.2-3.6-.2-.9,0-1.7.9-1.7,2.1,0,1.4-.1,3-.1,3.9,0,1.9-.4,3.5.6,4.5,1.1,1,3.4.7,4.8.7.5,0,1.1,0,1.5-.5.4-.5.4-1.2.4-1.8,0-1.9.1-3.9.1-5.8,0-.8,0-1.7-.4-2.2Z"/>
          <path class="st19" d="M287.8,273.6c-.4-.5-1-.6-1.6-.7-.9,0-2.3-.2-3.6-.2-.9,0-1.7.9-1.7,2.1,0,1.4-.1,3-.1,3.9,0,1.9-.4,3.5.6,4.5,1.1,1,3.4.7,4.8.7.5,0,1.1,0,1.5-.5.4-.5.4-1.2.4-1.8,0-1.9.1-3.9.1-5.8,0-.8,0-1.7-.4-2.2Z"/>
          <path class="st19" d="M299.1,273.6c-.4-.5-1-.6-1.6-.7-.9,0-2.3-.2-3.6-.2-.9,0-1.7.9-1.7,2.1,0,1.4-.1,3-.1,3.9,0,1.9-.4,3.5.6,4.5,1.1,1,3.4.7,4.8.7.5,0,1.1,0,1.5-.5.4-.5.4-1.2.4-1.8,0-1.9.1-3.9.1-5.8,0-.8,0-1.7-.4-2.2Z"/>
          <path class="st19" d="M265.2,290.2c-.4-.5-1-.6-1.6-.7-.9,0-2.3-.2-3.6-.2-.9,0-1.7.9-1.7,2.1,0,1.4-.1,3-.1,3.9,0,1.9-.4,3.5.6,4.5,1.1,1,3.4.7,4.8.7.5,0,1.1,0,1.5-.5.4-.5.4-1.2.4-1.8,0-1.9.1-3.9.1-5.8,0-.8,0-1.7-.4-2.2Z"/>
          <path class="st19" d="M276.5,290.2c-.4-.5-1-.6-1.6-.7-.9,0-2.3-.2-3.6-.2-.9,0-1.7.9-1.7,2.1,0,1.4-.1,3-.1,3.9,0,1.9-.4,3.5.6,4.5,1.1,1,3.4.7,4.8.7.5,0,1.1,0,1.5-.5.4-.5.4-1.2.4-1.8,0-1.9.1-3.9.1-5.8,0-.8,0-1.7-.4-2.2Z"/>
          <path class="st19" d="M287.8,290.2c-.4-.5-1-.6-1.6-.7-.9,0-2.3-.2-3.6-.2-.9,0-1.7.9-1.7,2.1,0,1.4-.1,3-.1,3.9,0,1.9-.4,3.5.6,4.5,1.1,1,3.4.7,4.8.7.5,0,1.1,0,1.5-.5.4-.5.4-1.2.4-1.8,0-1.9.1-3.9.1-5.8,0-.8,0-1.7-.4-2.2Z"/>
          <path class="st19" d="M299.1,290.2c-.4-.5-1-.6-1.6-.7-.9,0-2.3-.2-3.6-.2-.9,0-1.7.9-1.7,2.1,0,1.4-.1,3-.1,3.9,0,1.9-.4,3.5.6,4.5,1.1,1,3.4.7,4.8.7.5,0,1.1,0,1.5-.5.4-.5.4-1.2.4-1.8,0-1.9.1-3.9.1-5.8,0-.8,0-1.7-.4-2.2Z"/>
          <path class="st19" d="M265.2,306.7c-.4-.5-1-.6-1.6-.7-.9,0-2.3-.2-3.6-.2-.9,0-1.7.9-1.7,2.1,0,1.4-.1,3-.1,3.9,0,1.9-.4,3.5.6,4.5,1.1,1,3.4.7,4.8.7.5,0,1.1,0,1.5-.5.4-.5.4-1.2.4-1.8,0-1.9.1-3.9.1-5.8,0-.8,0-1.7-.4-2.2Z"/>
          <path class="st19" d="M276.5,306.7c-.4-.5-1-.6-1.6-.7-.9,0-2.3-.2-3.6-.2-.9,0-1.7.9-1.7,2.1,0,1.4-.1,3-.1,3.9,0,1.9-.4,3.5.6,4.5,1.1,1,3.4.7,4.8.7.5,0,1.1,0,1.5-.5.4-.5.4-1.2.4-1.8,0-1.9.1-3.9.1-5.8,0-.8,0-1.7-.4-2.2Z"/>
          <path class="st19" d="M287.8,306.7c-.4-.5-1-.6-1.6-.7-.9,0-2.3-.2-3.6-.2-.9,0-1.7.9-1.7,2.1,0,1.4-.1,3-.1,3.9,0,1.9-.4,3.5.6,4.5,1.1,1,3.4.7,4.8.7.5,0,1.1,0,1.5-.5.4-.5.4-1.2.4-1.8,0-1.9.1-3.9.1-5.8,0-.8,0-1.7-.4-2.2Z"/>
          <path class="st19" d="M299.1,306.7c-.4-.5-1-.6-1.6-.7-.9,0-2.3-.2-3.6-.2-.9,0-1.7.9-1.7,2.1,0,1.4-.1,3-.1,3.9,0,1.9-.4,3.5.6,4.5,1.1,1,3.4.7,4.8.7.5,0,1.1,0,1.5-.5.4-.5.4-1.2.4-1.8,0-1.9.1-3.9.1-5.8,0-.8,0-1.7-.4-2.2Z"/>
          <path class="st19" d="M265.2,323.3c-.4-.5-1-.6-1.6-.7-.9,0-2.3-.2-3.6-.2-.9,0-1.7.9-1.7,2.1,0,1.4-.1,3-.1,3.9,0,1.9-.4,3.5.6,4.5,1.1,1,3.4.7,4.8.7.5,0,1.1,0,1.5-.5.4-.5.4-1.2.4-1.8,0-1.9.1-3.9.1-5.8,0-.8,0-1.7-.4-2.3Z"/>
          <path class="st19" d="M276.5,323.3c-.4-.5-1-.6-1.6-.7-.9,0-2.3-.2-3.6-.2-.9,0-1.7.9-1.7,2.1,0,1.4-.1,3-.1,3.9,0,1.9-.4,3.5.6,4.5,1.1,1,3.4.7,4.8.7.5,0,1.1,0,1.5-.5.4-.5.4-1.2.4-1.8,0-1.9.1-3.9.1-5.8,0-.8,0-1.7-.4-2.3Z"/>
          <path class="st19" d="M287.8,323.3c-.4-.5-1-.6-1.6-.7-.9,0-2.3-.2-3.6-.2-.9,0-1.7.9-1.7,2.1,0,1.4-.1,3-.1,3.9,0,1.9-.4,3.5.6,4.5,1.1,1,3.4.7,4.8.7.5,0,1.1,0,1.5-.5.4-.5.4-1.2.4-1.8,0-1.9.1-3.9.1-5.8,0-.8,0-1.7-.4-2.3Z"/>
          <path class="st19" d="M299.1,323.3c-.4-.5-1-.6-1.6-.7-.9,0-2.3-.2-3.6-.2-.9,0-1.7.9-1.7,2.1,0,1.4-.1,3-.1,3.9,0,1.9-.4,3.5.6,4.5,1.1,1,3.4.7,4.8.7.5,0,1.1,0,1.5-.5.4-.5.4-1.2.4-1.8,0-1.9.1-3.9.1-5.8,0-.8,0-1.7-.4-2.3Z"/>
        </g>
        <g>
          <path class="st0" d="M250.4,308.9c-.2,7.2-.5,14.4-.9,21.6-.2,3.7-.4,7.3-.6,11-3.8.2-7.6.3-11.3.5-12.5.5-25.2,1-37.8.9-.6-32.5-.6-77.4-.1-111.9.1-7.8.7-17.3,3.2-18.8l42.2,1.4c2,0,3.7,1.8,4.3,4.3,0,.4.2.8.2,1.2.3,1.6.6,3.6.8,5.6.2,2.1.4,4.3.4,6.5.4,25.6.4,51.8-.4,77.8Z"/>
          <path class="st19" d="M213.4,222.1c-.3-.5-.9-.6-1.4-.6-.8,0-2-.1-3.1-.1-.8,0-1.5.8-1.5,1.8,0,1.2-.1,2.6-.1,3.5,0,1.7-.3,3.1.5,3.9.9.9,3,.6,4.2.6.5,0,1,0,1.3-.4.3-.4.4-1,.4-1.6,0-1.7,0-3.4.1-5.1,0-.7,0-1.5-.4-2Z"/>
          <path class="st19" d="M223.3,222.1c-.3-.5-.9-.6-1.4-.6-.8,0-2-.1-3.1-.1-.8,0-1.5.8-1.5,1.8,0,1.2-.1,2.6-.1,3.5,0,1.7-.3,3.1.5,3.9.9.9,3,.6,4.2.6.5,0,1,0,1.3-.4.3-.4.4-1,.4-1.6,0-1.7,0-3.4.1-5.1,0-.7,0-1.5-.4-2Z"/>
          <path class="st19" d="M233.3,222.1c-.3-.5-.9-.6-1.4-.6-.8,0-2-.1-3.1-.1-.8,0-1.5.8-1.5,1.8,0,1.2-.1,2.6-.1,3.5,0,1.7-.3,3.1.5,3.9.9.9,3,.6,4.2.6.5,0,1,0,1.3-.4.3-.4.4-1,.4-1.6,0-1.7,0-3.4.1-5.1,0-.7,0-1.5-.4-2Z"/>
          <path class="st19" d="M243.2,222.1c-.3-.5-.9-.6-1.4-.6-.8,0-2-.1-3.1-.1-.8,0-1.5.8-1.5,1.8,0,1.2-.1,2.6-.1,3.5,0,1.7-.3,3.1.5,3.9.9.9,3,.6,4.2.6.5,0,1,0,1.3-.4.3-.4.4-1,.4-1.6,0-1.7,0-3.4.1-5.1,0-.7,0-1.5-.4-2Z"/>
          <path class="st19" d="M213.4,236.7c-.3-.5-.9-.6-1.4-.6-.8,0-2-.1-3.1-.1-.8,0-1.5.8-1.5,1.8,0,1.2-.1,2.6-.1,3.5,0,1.7-.3,3.1.5,3.9.9.9,3,.6,4.2.6.5,0,1,0,1.3-.4.3-.4.4-1,.4-1.6,0-1.7,0-3.4.1-5.1,0-.7,0-1.5-.4-2Z"/>
          <path class="st19" d="M223.3,236.7c-.3-.5-.9-.6-1.4-.6-.8,0-2-.1-3.1-.1-.8,0-1.5.8-1.5,1.8,0,1.2-.1,2.6-.1,3.5,0,1.7-.3,3.1.5,3.9.9.9,3,.6,4.2.6.5,0,1,0,1.3-.4.3-.4.4-1,.4-1.6,0-1.7,0-3.4.1-5.1,0-.7,0-1.5-.4-2Z"/>
          <path class="st19" d="M233.3,236.7c-.3-.5-.9-.6-1.4-.6-.8,0-2-.1-3.1-.1-.8,0-1.5.8-1.5,1.8,0,1.2-.1,2.6-.1,3.5,0,1.7-.3,3.1.5,3.9.9.9,3,.6,4.2.6.5,0,1,0,1.3-.4.3-.4.4-1,.4-1.6,0-1.7,0-3.4.1-5.1,0-.7,0-1.5-.4-2Z"/>
          <path class="st19" d="M243.2,236.7c-.3-.5-.9-.6-1.4-.6-.8,0-2-.1-3.1-.1-.8,0-1.5.8-1.5,1.8,0,1.2-.1,2.6-.1,3.5,0,1.7-.3,3.1.5,3.9.9.9,3,.6,4.2.6.5,0,1,0,1.3-.4.3-.4.4-1,.4-1.6,0-1.7,0-3.4.1-5.1,0-.7,0-1.5-.4-2Z"/>
          <path class="st19" d="M213.4,251.3c-.3-.5-.9-.6-1.4-.6-.8,0-2-.1-3.1-.1-.8,0-1.5.8-1.5,1.8,0,1.2-.1,2.6-.1,3.5,0,1.7-.3,3.1.5,3.9.9.9,3,.6,4.2.6.5,0,1,0,1.3-.4.3-.4.4-1,.4-1.6,0-1.7,0-3.4.1-5.1,0-.7,0-1.5-.4-2Z"/>
          <path class="st19" d="M223.3,251.3c-.3-.5-.9-.6-1.4-.6-.8,0-2-.1-3.1-.1-.8,0-1.5.8-1.5,1.8,0,1.2-.1,2.6-.1,3.5,0,1.7-.3,3.1.5,3.9.9.9,3,.6,4.2.6.5,0,1,0,1.3-.4.3-.4.4-1,.4-1.6,0-1.7,0-3.4.1-5.1,0-.7,0-1.5-.4-2Z"/>
          <path class="st19" d="M233.3,251.3c-.3-.5-.9-.6-1.4-.6-.8,0-2-.1-3.1-.1-.8,0-1.5.8-1.5,1.8,0,1.2-.1,2.6-.1,3.5,0,1.7-.3,3.1.5,3.9.9.9,3,.6,4.2.6.5,0,1,0,1.3-.4.3-.4.4-1,.4-1.6,0-1.7,0-3.4.1-5.1,0-.7,0-1.5-.4-2Z"/>
          <path class="st19" d="M243.2,251.3c-.3-.5-.9-.6-1.4-.6-.8,0-2-.1-3.1-.1-.8,0-1.5.8-1.5,1.8,0,1.2-.1,2.6-.1,3.5,0,1.7-.3,3.1.5,3.9.9.9,3,.6,4.2.6.5,0,1,0,1.3-.4.3-.4.4-1,.4-1.6,0-1.7,0-3.4.1-5.1,0-.7,0-1.5-.4-2Z"/>
          <path class="st19" d="M213.4,265.9c-.3-.5-.9-.6-1.4-.6-.8,0-2-.1-3.1-.1-.8,0-1.5.8-1.5,1.8,0,1.2-.1,2.6-.1,3.5,0,1.7-.3,3.1.5,3.9.9.9,3,.6,4.2.6.5,0,1,0,1.3-.4.3-.4.4-1,.4-1.6,0-1.7,0-3.4.1-5.1,0-.7,0-1.5-.4-2Z"/>
          <path class="st19" d="M223.3,265.9c-.3-.5-.9-.6-1.4-.6-.8,0-2-.1-3.1-.1-.8,0-1.5.8-1.5,1.8,0,1.2-.1,2.6-.1,3.5,0,1.7-.3,3.1.5,3.9.9.9,3,.6,4.2.6.5,0,1,0,1.3-.4.3-.4.4-1,.4-1.6,0-1.7,0-3.4.1-5.1,0-.7,0-1.5-.4-2Z"/>
          <path class="st19" d="M233.3,265.9c-.3-.5-.9-.6-1.4-.6-.8,0-2-.1-3.1-.1-.8,0-1.5.8-1.5,1.8,0,1.2-.1,2.6-.1,3.5,0,1.7-.3,3.1.5,3.9.9.9,3,.6,4.2.6.5,0,1,0,1.3-.4.3-.4.4-1,.4-1.6,0-1.7,0-3.4.1-5.1,0-.7,0-1.5-.4-2Z"/>
          <path class="st19" d="M243.2,265.9c-.3-.5-.9-.6-1.4-.6-.8,0-2-.1-3.1-.1-.8,0-1.5.8-1.5,1.8,0,1.2-.1,2.6-.1,3.5,0,1.7-.3,3.1.5,3.9.9.9,3,.6,4.2.6.5,0,1,0,1.3-.4.3-.4.4-1,.4-1.6,0-1.7,0-3.4.1-5.1,0-.7,0-1.5-.4-2Z"/>
          <path class="st19" d="M213.4,280.5c-.3-.5-.9-.6-1.4-.6-.8,0-2-.1-3.1-.1-.8,0-1.5.8-1.5,1.8,0,1.2-.1,2.6-.1,3.5,0,1.7-.3,3.1.5,3.9.9.9,3,.6,4.2.6.5,0,1,0,1.3-.4.3-.4.4-1,.4-1.6,0-1.7,0-3.4.1-5.1,0-.7,0-1.5-.4-2Z"/>
          <path class="st19" d="M223.3,280.5c-.3-.5-.9-.6-1.4-.6-.8,0-2-.1-3.1-.1-.8,0-1.5.8-1.5,1.8,0,1.2-.1,2.6-.1,3.5,0,1.7-.3,3.1.5,3.9.9.9,3,.6,4.2.6.5,0,1,0,1.3-.4.3-.4.4-1,.4-1.6,0-1.7,0-3.4.1-5.1,0-.7,0-1.5-.4-2Z"/>
          <path class="st19" d="M233.3,280.5c-.3-.5-.9-.6-1.4-.6-.8,0-2-.1-3.1-.1-.8,0-1.5.8-1.5,1.8,0,1.2-.1,2.6-.1,3.5,0,1.7-.3,3.1.5,3.9.9.9,3,.6,4.2.6.5,0,1,0,1.3-.4.3-.4.4-1,.4-1.6,0-1.7,0-3.4.1-5.1,0-.7,0-1.5-.4-2Z"/>
          <path class="st19" d="M243.2,280.5c-.3-.5-.9-.6-1.4-.6-.8,0-2-.1-3.1-.1-.8,0-1.5.8-1.5,1.8,0,1.2-.1,2.6-.1,3.5,0,1.7-.3,3.1.5,3.9.9.9,3,.6,4.2.6.5,0,1,0,1.3-.4.3-.4.4-1,.4-1.6,0-1.7,0-3.4.1-5.1,0-.7,0-1.5-.4-2Z"/>
          <path class="st19" d="M213.4,295.1c-.3-.5-.9-.6-1.4-.6-.8,0-2-.1-3.1-.1-.8,0-1.5.8-1.5,1.8,0,1.2-.1,2.6-.1,3.5,0,1.7-.3,3.1.5,3.9.9.9,3,.6,4.2.6.5,0,1,0,1.3-.4.3-.4.4-1,.4-1.6,0-1.7,0-3.4.1-5.1,0-.7,0-1.5-.4-2Z"/>
          <path class="st19" d="M223.3,295.1c-.3-.5-.9-.6-1.4-.6-.8,0-2-.1-3.1-.1-.8,0-1.5.8-1.5,1.8,0,1.2-.1,2.6-.1,3.5,0,1.7-.3,3.1.5,3.9.9.9,3,.6,4.2.6.5,0,1,0,1.3-.4.3-.4.4-1,.4-1.6,0-1.7,0-3.4.1-5.1,0-.7,0-1.5-.4-2Z"/>
          <path class="st19" d="M233.3,295.1c-.3-.5-.9-.6-1.4-.6-.8,0-2-.1-3.1-.1-.8,0-1.5.8-1.5,1.8,0,1.2-.1,2.6-.1,3.5,0,1.7-.3,3.1.5,3.9.9.9,3,.6,4.2.6.5,0,1,0,1.3-.4.3-.4.4-1,.4-1.6,0-1.7,0-3.4.1-5.1,0-.7,0-1.5-.4-2Z"/>
          <path class="st19" d="M243.2,295.1c-.3-.5-.9-.6-1.4-.6-.8,0-2-.1-3.1-.1-.8,0-1.5.8-1.5,1.8,0,1.2-.1,2.6-.1,3.5,0,1.7-.3,3.1.5,3.9.9.9,3,.6,4.2.6.5,0,1,0,1.3-.4.3-.4.4-1,.4-1.6,0-1.7,0-3.4.1-5.1,0-.7,0-1.5-.4-2Z"/>
          <path class="st19" d="M213.4,309.7c-.3-.5-.9-.6-1.4-.6-.8,0-2-.1-3.1-.1-.8,0-1.5.8-1.5,1.8,0,1.2-.1,2.6-.1,3.5,0,1.7-.3,3.1.5,3.9.9.9,3,.6,4.2.6.5,0,1,0,1.3-.4.3-.4.4-1,.4-1.6,0-1.7,0-3.4.1-5.1,0-.7,0-1.5-.4-2Z"/>
          <path class="st19" d="M223.3,309.7c-.3-.5-.9-.6-1.4-.6-.8,0-2-.1-3.1-.1-.8,0-1.5.8-1.5,1.8,0,1.2-.1,2.6-.1,3.5,0,1.7-.3,3.1.5,3.9.9.9,3,.6,4.2.6.5,0,1,0,1.3-.4.3-.4.4-1,.4-1.6,0-1.7,0-3.4.1-5.1,0-.7,0-1.5-.4-2Z"/>
          <path class="st19" d="M233.3,309.7c-.3-.5-.9-.6-1.4-.6-.8,0-2-.1-3.1-.1-.8,0-1.5.8-1.5,1.8,0,1.2-.1,2.6-.1,3.5,0,1.7-.3,3.1.5,3.9.9.9,3,.6,4.2.6.5,0,1,0,1.3-.4.3-.4.4-1,.4-1.6,0-1.7,0-3.4.1-5.1,0-.7,0-1.5-.4-2Z"/>
          <path class="st19" d="M243.2,309.7c-.3-.5-.9-.6-1.4-.6-.8,0-2-.1-3.1-.1-.8,0-1.5.8-1.5,1.8,0,1.2-.1,2.6-.1,3.5,0,1.7-.3,3.1.5,3.9.9.9,3,.6,4.2.6.5,0,1,0,1.3-.4.3-.4.4-1,.4-1.6,0-1.7,0-3.4.1-5.1,0-.7,0-1.5-.4-2Z"/>
          <path class="st19" d="M213.4,324.3c-.3-.5-.9-.6-1.4-.6-.8,0-2-.1-3.1-.1-.8,0-1.5.8-1.5,1.8,0,1.2-.1,2.6-.1,3.5,0,1.7-.3,3.1.5,3.9.9.9,3,.6,4.2.6.5,0,1,0,1.3-.4.3-.4.4-1,.4-1.6,0-1.7,0-3.4.1-5.1,0-.7,0-1.5-.4-2Z"/>
          <path class="st19" d="M223.3,324.3c-.3-.5-.9-.6-1.4-.6-.8,0-2-.1-3.1-.1-.8,0-1.5.8-1.5,1.8,0,1.2-.1,2.6-.1,3.5,0,1.7-.3,3.1.5,3.9.9.9,3,.6,4.2.6.5,0,1,0,1.3-.4.3-.4.4-1,.4-1.6,0-1.7,0-3.4.1-5.1,0-.7,0-1.5-.4-2Z"/>
          <path class="st19" d="M233.3,324.3c-.3-.5-.9-.6-1.4-.6-.8,0-2-.1-3.1-.1-.8,0-1.5.8-1.5,1.8,0,1.2-.1,2.6-.1,3.5,0,1.7-.3,3.1.5,3.9.9.9,3,.6,4.2.6.5,0,1,0,1.3-.4.3-.4.4-1,.4-1.6,0-1.7,0-3.4.1-5.1,0-.7,0-1.5-.4-2Z"/>
          <path class="st19" d="M243.2,324.3c-.3-.5-.9-.6-1.4-.6-.8,0-2-.1-3.1-.1-.8,0-1.5.8-1.5,1.8,0,1.2-.1,2.6-.1,3.5,0,1.7-.3,3.1.5,3.9.9.9,3,.6,4.2.6.5,0,1,0,1.3-.4.3-.4.4-1,.4-1.6,0-1.7,0-3.4.1-5.1,0-.7,0-1.5-.4-2Z"/>
        </g>
      </g>
      <path class="st19" d="M249.2,200.2v142.5c0,1.5,2.4,1.5,2.4,0v-142.5c0-1.5-2.4-1.5-2.4,0h0Z"/>
      <path class="st19" d="M103.7,324.6c0-8.5,0-16.9.2-25.4.2-11.7.4-23.4.6-35,.2-12.7.5-25.5.7-38.2.2-11.6.4-23.2.5-34.8,0-8.4.1-16.8,0-25.2,0-.7,0-1.4,0-2.1,0-1.5-2.4-1.5-2.4,0,.2,7.8.2,15.7.1,23.6,0,11.4-.2,22.7-.4,34.1-.2,12.7-.4,25.4-.7,38.1-.2,11.9-.4,23.7-.6,35.6-.1,9-.3,18-.3,27,0,.8,0,1.6,0,2.4,0,1.5,2.4,1.5,2.4,0h0Z"/>
    </g>
  </g>
  <g>
    <path class="st14" d="M271.8,67.5c1.5-11.4,8.9-24.6,34.1-24.9,6.7.4,13.5,2.5,18.6,6.9,5.1,4.4,8,10.9,9.2,17.5,1.1,6.2.7,13-2.8,18.2-3.4,4.9-9,7.5-14.9,9,.7,1.4,1.6,2.8,2.6,4,.3.4.7.8.8,1.3s0,1.1-.5,1.3c-.2.1-.5,0-.8,0-4-.5-7.9-2.4-10.9-5.1-6.3.7-12.7,1-18.7-1.1-10.8-3.8-18.2-15.7-16.7-27.1Z"/>
    <g>
      <path class="st11" d="M318.7,68.6c0,6.6-4.2,12.6-10.4,14.8-6.2,2.3-13.3.3-17.5-4.7-4.3-5.1-4.8-12.5-1.4-18.2,3.4-5.7,10.2-8.7,16.6-7.4,7.3,1.5,12.6,8,12.7,15.5,0,.6.9.6.9,0,0-7-4.4-13.3-11-15.7-6.6-2.4-14.1-.3-18.6,5.1-4.4,5.4-5,13.2-1.4,19.1,3.6,6,10.8,9.2,17.7,7.8,7.7-1.6,13.3-8.5,13.4-16.3,0-.6-.9-.6-.9,0Z"/>
      <path class="st11" d="M304.2,84.3c-5.5,0-9-5.5-10.2-10.4-1.5-5.8-.7-12.8,3.2-17.5,1.8-2.1,4.2-3.7,7-3.7.6,0,.6-.9,0-.9-5.9,0-9.7,5.7-11,10.9-1.6,6.2-.7,13.7,3.6,18.7,1.9,2.2,4.5,3.8,7.5,3.8.6,0,.6-.9,0-.9h0Z"/>
      <path class="st11" d="M304.2,85.2c5,0,7.2-6.7,8-10.7,1.2-6.2.6-13.4-3-18.8-1.3-1.9-3.2-3.8-5.7-3.9-.6,0-.6.9,0,.9,2,0,3.6,1.6,4.8,3.1,1.6,2.2,2.5,4.8,3.1,7.4,1.2,5.5.7,12.2-2.1,17.2-1,1.8-2.7,3.7-4.9,3.8-.6,0-.6.9,0,.9h0Z"/>
      <path class="st11" d="M302.5,52.3c0,10.8.2,21.6.2,32.5,0,.6.9.6.9,0,0-10.8-.2-21.6-.2-32.5,0-.6-.9-.6-.9,0h0Z"/>
      <path class="st11" d="M286.8,69h31.8c.6,0,.6-.9,0-.9h-31.8c-.6,0-.6.9,0,.9h0Z"/>
      <path class="st11" d="M291.3,57.8h22.8c.6,0,.6-.9,0-.9h-22.8c-.6,0-.6.9,0,.9h0Z"/>
      <path class="st11" d="M290.8,79.5c8.2-.1,16.3-.2,24.5-.3.6,0,.6-.9,0-.9-8.2.1-16.3.2-24.5.3-.6,0-.6.9,0,.9h0Z"/>
    </g>
  </g>
  <g id="Video_Camera">
    <g>
      <g>
        <polygon class="st7" points="203.1 447.4 210.3 447.4 205 218.5 194 220.7 203.1 447.4"/>
        <path class="st7" d="M154.8,471.1c0-1.6,47.7-267.5,47.7-267.5h-11.4l-44.2,267.5h7.9Z"/>
        <path class="st7" d="M246.8,143.3s11.3-.5,11.7,0,2.1,10.5,0,12.1-13.8,0-13.8,0l2.1-12.1Z"/>
        <rect class="st7" x="193.9" y="113" width="6.2" height="18.9"/>
        <path class="st7" d="M181.1,92.5c-.7.5-4,18.6-3.8,20.3.2,1.7,35.6,1.1,35.6,1.1,0,.5,4-20.9,3.3-21.5-.8-.7-35.1.1-35.1.1Z"/>
        <path class="st7" d="M167.8,128.8s-2.9,34.1,1.1,37.1c1.6,1.2,61.4,3.7,61.4,0s2.7-35-1.1-37.1c-3.9-2.2-61.4-2-61.4,0Z"/>
        <path class="st7" d="M230.2,136.2c.3,0,4.2-.4,4.7,1.4.5,1.8,1.1,21.9-.8,23-1.9,1.1-4.5,0-4.5,0l.6-24.4Z"/>
        <path class="st7" d="M233.7,139.8s11-1.1,12.9.2c1.2.9,1.5,18.3-.3,19-1.5.6-11.7-.4-11.7-.4l-.9-18.9Z"/>
        <path class="st14" d="M239.7,119.5c-3.4,0-6,3-5.5,6.4,0,0,0,0,0,.1.7,4.5,5,4.3,5,4.3h15.9s4.9,0,4.9-6.1-8-4.8-9.1-4.9c-.7,0-7.4,0-11.2.1Z"/>
        <path class="st7" d="M222.7,122.4h15.2s1.4.3,1.2,2.3c-.1,2.2-1.6,2.5-1.6,2.5h-15.5l.6-4.8Z"/>
        <path class="st7" d="M183.1,167.1s-.2,5,.7,5.6,36.3,1.6,37.6,0,0-5.6,0-5.6c0,0-37.6,0-38.4,0Z"/>
        <path class="st7" d="M223.2,137.1h-10.6c-1,0-1.8-.8-1.8-1.8v-12.8c0-1,.8-1.8,1.8-1.8h10.6c1,0,1.8.8,1.8,1.8v12.8c0,1-.8,1.8-1.8,1.8Z"/>
        <path class="st14" d="M171,132.4s-1.9,26.9,0,27.3c1.9.4,25.7,1.7,27.2,0s2.1-27.4,0-28c-2.1-.6-26.4-.2-27.2.7Z"/>
        <path class="st14" d="M183.1,94.8s-4.3,15.9-3.6,16.5c.8.6,29.6.4,30.6-.2.9-.6,3.6-15,3.6-16.3,0-.7-30.6,0-30.6,0Z"/>
        <path class="st7" d="M179.4,101.1s-10.3-.4-10.7.3c-.5.8-2,4.9,0,5.1,2,.2,9.4.4,9.4.4l1.3-5.9Z"/>
        <path class="st7" d="M168.3,103.7c-3.2,1.7-5.1,4.8-6.3,8.1-1.5,4.2-2,8.7-2.7,13.1-.8,5.1-1.4,10.2-1.9,15.3-.4,4.2-.8,9.3,1.6,13,2.1,3.3,5.7,6.1,9.4,7.4.7.2,1-.9.3-1.2-3.3-1.1-6.4-3.5-8.4-6.3-2.4-3.4-2.2-8.1-1.9-12,.4-4.8,1-9.7,1.7-14.5.6-4.1,1.2-8.2,2.2-12.2,1-3.9,2.7-7.8,6.4-9.7.7-.4,0-1.4-.6-1h0Z"/>
        <rect class="st7" x="196.9" y="172" width="8.1" height="50.7"/>
        <rect class="st7" x="188.4" y="197.5" width="24.8" height="7"/>
        <path class="st7" d="M250.6,474.2c0-1.6-51.7-273.1-51.7-273.1h11.4l46.7,273.1h-6.3Z"/>
        <path class="st14" d="M204.9,166.3v-38.5c0-.8-1.2-.8-1.2,0v38.5c0,.8,1.2.8,1.2,0h0Z"/>
        <path class="st14" d="M191.7,114.8h12.1c.8,0,.8-1.2,0-1.2h-12.1c-.8,0-.8,1.2,0,1.2h0Z"/>
        <path class="st7" d="M237.8,120.7c2.2-.5,4.1,1.4,4.1,3.6,0,2.3-1.8,4.1-4,4.7-.7.2-.4,1.4.3,1.2,2.7-.8,5-3.2,4.8-6.2,0-1.4-.7-2.7-1.9-3.6-1.1-.8-2.5-1.2-3.8-.8-.7.2-.4,1.3.3,1.2h0Z"/>
        <path class="st14" d="M231.2,165.7c.5-11.3.3-22.7-.5-34,0-.8-1.3-.8-1.2,0,.8,11.3,1,22.7.5,34,0,.8,1.2.8,1.2,0h0Z"/>
        <path class="st14" d="M234.3,158.9s0,0,0,0c0,.8,1.1.8,1.2,0,.3-2.6.4-5.2.5-7.7.2-4.3.3-8.6-.4-12.8-.1-.8-1.3-.4-1.2.3.7,4.2.6,8.5.4,12.8-.1,2.5-.3,5-.5,7.5h1.2s0,0,0,0c0-.8-1.1-.8-1.2,0h0Z"/>
        <g>
          <path class="st7" d="M250.2,137.2c-.5,0-.1,22.9.8,23.6.9.8,18.9,0,18.9,0,0,0,.1-22.4,0-23.1-.2-1.7-19.2-.4-19.7-.5Z"/>
          <path class="st14" d="M250.8,142.1h14.2c.8,0,.8-1.2,0-1.2h-14.2c-.8,0-.8,1.2,0,1.2h0Z"/>
          <path class="st14" d="M251.1,158h13.9c.8,0,.8-1.2,0-1.2h-13.9c-.8,0-.8,1.2,0,1.2h0Z"/>
          <path class="st14" d="M265,140.9c0,0,.2,0,.3,0,0,0,.1.1.2.2,0,0,.1.6,0,.7,0,0,0,0,0,0,0,0,0,0,.1,0,.1,0,.2-.2.3-.3,0,0,0,0,.1,0,.1,0,0,0,0,0,0,0,.2-.1.3-.2.2-.1.4-.3.6-.4.8-.6,1.6-1.2,2.4-1.7.2-.1.4-.3.5-.4.3-.2.4-.5.2-.8-.2-.3-.6-.4-.8-.2-1.4,1-2.9,2.1-4.3,3.2,0,0-.2.2-.3.3-.4.4-.2,1,.4,1.1.3,0,.6-.3.6-.6,0-.3-.3-.6-.6-.6h0Z"/>
          <path class="st14" d="M264.2,141.6v15.7c0,.8,1.2.8,1.2,0v-15.7c0-.8-1.2-.8-1.2,0h0Z"/>
          <path class="st14" d="M264.6,158c1.6.7,3.2,1.7,4.6,2.8.3.2.6.2.8,0,.2-.2.3-.6,0-.8-1.5-1.2-3.1-2.2-4.8-3-.3-.1-.6,0-.8.2-.2.3,0,.7.2.8h0Z"/>
        </g>
        <path class="st14" d="M247.3,156.4c3.6,0,7.1-.1,10.7-.2.5,0,1,0,1.6,0,.3,0,.5-.2.6-.4,1.2-4.1.9-8.6-.9-12.5,0-.2-.3-.3-.5-.3l-9.5-.2c-.5,0-.9,0-1.4,0-.8,0-.8,1.2,0,1.2l9.5.2c.5,0,.9,0,1.4,0-.2,0-.3-.2-.5-.3,1.6,3.6,1.8,7.8.7,11.6.2-.1.4-.3.6-.4-3.6,0-7.1.1-10.7.2-.5,0-1,0-1.6,0-.8,0-.8,1.2,0,1.2h0Z"/>
        <path class="st14" d="M247.3,159.2c1.4-6.3,2.8-13.2-.3-19.2-.3-.7-1.4,0-1,.6,2.9,5.8,1.5,12.3.1,18.3-.2.7,1,1.1,1.2.3h0Z"/>
        <path class="st14" d="M188.2,205.3h24.5c.8,0,.8-1.2,0-1.2h-24.5c-.8,0-.8,1.2,0,1.2h0Z"/>
        <path class="st14" d="M155.4,471.1c.3-3.4,1-6.9,1.5-10.3,1.1-6.8,2.3-13.7,3.4-20.5,1.6-9.5,3.3-18.9,4.9-28.4,1.9-11.2,3.9-22.3,5.9-33.5,2.1-12.1,4.2-24.1,6.4-36.2,2.1-12.2,4.3-24.3,6.4-36.5,2-11.4,4-22.8,6-34.3,1.7-9.9,3.4-19.7,5.1-29.6,1.3-7.5,2.5-14.9,3.7-22.4.7-4.3,1.4-8.6,1.9-12.9,0-.5,0-.9.1-1.4,0-.8-1.2-.8-1.2,0-.2,3.4-.8,6.8-1.3,10.1-1,6.8-2.2,13.6-3.3,20.4-1.6,9.4-3.2,18.9-4.8,28.3-1.9,11.1-3.9,22.3-5.8,33.4-2.1,12.1-4.2,24.1-6.3,36.2-2.1,12.2-4.3,24.3-6.4,36.5-2,11.4-4,22.9-6,34.3-1.7,9.9-3.5,19.8-5.2,29.7-1.3,7.5-2.6,15-3.8,22.5-.7,4.3-1.5,8.7-2,13.1,0,.5-.1.9-.2,1.4,0,.8,1.1.8,1.2,0h0Z"/>
        <path class="st14" d="M199.8,206.1c2,10.8,3,21.7,5,32.5,1,5.3,2,10.7,3,16,1.5,8.1,3.1,16.2,4.6,24.3,1.9,10.1,3.8,20.2,5.7,30.3,2.1,11.2,4.2,22.4,6.4,33.6,2.2,11.5,4.4,22.9,6.6,34.4,2.1,11,4.2,21.9,6.3,32.9,1.8,9.5,3.7,19,5.5,28.5,1.4,7.3,2.8,14.6,4.3,21.9.8,4.2,1.6,8.4,2.5,12.5.1.5.2.9.3,1.4.2.7,1.3.4,1.2-.3-.8-3.3-1.4-6.6-2.1-9.9-1.3-6.6-2.6-13.2-3.9-19.8-1.8-9-3.5-18.1-5.2-27.1-2.1-10.7-4.1-21.4-6.1-32.1-2.2-11.4-4.4-22.8-6.5-34.2-2.2-11.3-4.3-22.7-6.5-34-2-10.5-4-20.9-5.9-31.4-1.6-8.7-3.3-17.3-4.9-26-1.1-6.1-2.3-12.2-3.4-18.3-1.3-6.8-2.4-13.6-3.3-20.4-.7-5-1.3-10.1-2.2-15.1-.1-.8-1.3-.4-1.2.3h0Z"/>
      </g>
      <circle class="st4" cx="175.2" cy="135.5" r="1.8"/>
      <path class="st0" d="M194.1,111.4c1.2-3.3,3.8-5.8,7.1-7,.4-.1.6-.5.4-.9-1.6-2.8,2.1-6.3,4.8-6.4,1.3,0,2.8.6,3.5,1.8.7,1.2.4,2.9-.8,3.7-.4.3-.4.9.1,1.1,1.1.3,1.8,1.2,1.9,2.3.1.8,1.3.4,1.2-.3-.2-1.5-1.3-2.7-2.8-3.1,0,.4,0,.7.1,1.1,1.5-1,2.1-2.9,1.5-4.7-.6-1.8-2.5-2.9-4.3-3-3.8-.3-8.5,4.4-6.3,8.2.1-.3.2-.6.4-.9-3.7,1.3-6.6,4.1-7.9,7.8-.3.7.9,1,1.2.3h0Z"/>
      <path class="st0" d="M177.8,159.7c.3-4.5,3.5-8.4,7.8-9.8.3,0,.5-.4.4-.7-.6-2.5-.3-5.4,1.4-7.5,1.5-1.8,4-3,6.3-2.3,2.3.7,3.7,2.7,3.6,5,0,2-.7,4.1.7,5.8.5.6,1.3-.3.8-.8-.9-1.2-.6-2.8-.4-4.2.1-1.2.1-2.4-.4-3.6-1-2.1-3.3-3.6-5.6-3.6-2.6,0-5,1.4-6.4,3.5-1.6,2.3-1.8,5.3-1.2,8,.1-.2.3-.5.4-.7-4.8,1.5-8.3,5.9-8.7,10.9,0,.8,1.1.8,1.2,0h0Z"/>
      <text class="st5" transform="translate(177.8 137) scale(1.3 1.1)"><tspan x="0" y="0">REC</tspan></text>
    </g>
  </g>
  <g>
    <g>
      <g>
        <path class="st16" d="M322.1,443.4c.8-.5,1.7-.9,2.5-1.6,3.5-3.1,6.7-7.7,8.2-12,1.8-5.2-4.4-25.1-4.9-25.6l22,4.6s-1.5,18-.7,23.8c.8,5.8,5.7,20,4,23.5-1.8,3.5-27.2,8.2-36.8,9.1-14.9,1.3-20.2-5-20.3-6.9,0-1.3,21.8-11.9,26-15Z"/>
        <path class="st17" d="M296.4,457.9c.5-.4.9-.7,1.7-1.2,0,0,0,0,0,0,.3.2,10,5.8,26.5,4.9,16.8-.9,29.5-10.5,29.5-10.5.3,2.2.4,4.1-.1,5.1,0,.1-.1.2-.2.3-.2.2-.5.5-.9.7-5.4,3.4-27.4,7.4-36.2,8.2-11.6,1-17.3-2.5-19.5-5-1.1-1.4-1.2-2.1-.8-2.5Z"/>
      </g>
      <path class="st8" d="M301.6,454.6l20.3-11.2c2.1-1.2,4.1-3.4,6.2-6,0,0-.2-.1,0,0,2.2-5.7,7.1-6.3,9.7-3.1,1.7,2.1,2,5.5,1.9,7.8.2,0,.5,0,.7,0,6.2,0,10.4-4.7,10.4-4.7,1.3,4.9,2.5,10,3,13.3,0,0-13.2,10-29.8,10.9-16.6.9-26.2-5-26.2-5l3.8-2.1Z"/>
      <path class="st7" d="M334.2,446.7c-1.3-.9-2.3-2.2-3.6-3.1-1.4-1-3-1.7-4.7-2.3-.9-.3-.5-1.5.4-1.4,3.1.6,7.5,3.2,8.1,6.6,0,.1-.1.3-.2.2h0Z"/>
      <path class="st7" d="M327.1,449.8c-2.1-1.6-3.8-3.8-6.6-4.3-.9-.2-.7-1.6.2-1.6,1.6,0,3.2.9,4.3,2,1,1,2.2,2.3,2.3,3.8,0,.1-.2.2-.3.1h0Z"/>
      <path class="st7" d="M320.5,453.1c-1-.7-1.6-1.9-2.5-2.7-1-1-2.2-1.4-3.4-2-.9-.5-.2-1.7.7-1.6,2.4.4,6,3.3,5.9,5.9,0,.3-.4.6-.7.4h0Z"/>
      <path class="st0" d="M342.1,450.5c-2.6,1.4-5.4,2.2-8.3,2.6-.7,0-.9-1.1-.2-1.2,2.8-.4,5.5-1.1,8.2-1.9.3,0,.5.4.2.5h0Z"/>
    </g>
    <path class="st7" d="M353.6,451.6c-12.7,9.4-28.8,12.9-44.3,10-4.1-.8-8.3-1.8-11.6-4.4-.6-.5.3-1.4.9-.9,3,2.3,6.8,3.2,10.4,4,3.7.8,7.5,1.1,11.2,1.1,7.5,0,14.9-1.5,21.8-4.5,3.9-1.7,7.6-3.9,11-6.4.7-.5,1.3.6.6,1.1h0Z"/>
  </g>
  <g>
    <path class="st16" d="M408.5,418.4c-.2.7-.8,10.5,2.1,17.8,2.9,7.3-15.3,9.5-15.3,9.5,0,0-3.3-19.9-4.9-26-1.6-6,18.1-1.4,18.1-1.4Z"/>
    <path class="st17" d="M429.6,460.2s0,2.3-.5,4.4c-.5,2.1-7.8,3.1-17.2,2.3s-14.8-5.3-15.1-5.8c-.4-.5-1.1-7.7-1.1-7.7l34,6.7Z"/>
    <path class="st8" d="M410.2,435.7c.3.3,9.2,13.8,12.2,15.9s7.6,5.2,7.1,9.4c-.5,4.2-18.3,3-25.2,1-6.9-2-6.8-1.1-7.9-3.6-1.1-2.5-1.1-12.4-1.1-13.8,0-1.4,4.8-17.4,14.9-8.9Z"/>
    <path class="st7" d="M419.3,448.2c-3.3-.9-7.3-.9-10.3,1.1-.5.3-.2,1.2.4,1,3.2-1.2,6.1-1.9,9.6-1.1.6.1.9-.8.3-1h0Z"/>
    <path class="st7" d="M415.8,444.8c-3-1-6.5-.3-9.3.9-.7.3-.2,1.5.5,1.2,2.9-1.2,5.6-1.3,8.8-1.6.3,0,.4-.5,0-.6h0Z"/>
    <path class="st7" d="M412.8,441.1c-3.1-1-6.3-.9-9.3.2-.8.3-.5,1.7.4,1.3,2.8-1.1,5.8-1.3,8.7-.7.5.1.8-.7.2-.8h0Z"/>
    <path class="st7" d="M430.2,461.5c-1.2,2.1-3.7,2.4-5.9,2.7-3.5.4-7,.5-10.6.3-6.3-.4-12.7-2.1-17.9-5.8-.7-.5,0-1.6.6-1.1,4.8,3.4,10.5,5.1,16.3,5.6,3,.2,5.9.2,8.9,0,2.3-.2,6.1,0,7.4-2.3.4-.7,1.5,0,1.1.6h0Z"/>
  </g>
  <g>
    <g>
      <path class="st6" d="M318.7,273.4c.7-16.2,4.2-34.1,8-47.3,2.5-8.6,10.5-28,10.5-28l45.7.2s17.5,25.9,21,36.5c5.1,15.4,8.9,40.3,10.2,67.5,1.3,26,3.6,45.2,4.2,54.5.7,9.8,4.6,57.7,4.4,64.8-.2,6.8-42,6.2-46.1,0-3.7-5.6-14.1-123.6-16.4-148.3l-2.2-1.2c.5-.3,4.2,91.6,4.2,91.6l1.8,57.8c-2.4,4.8-45,4.1-46.2-.3-1.2-4.4,0-131.6.7-147.8Z"/>
      <path class="st7" d="M359.5,423.4c-.3-19.6-.5-39.2-.8-58.8-.2-19.4-.5-38.8-.7-58.2-.1-11.1-.3-22.2-.5-33.3,0-.8,1.2-.8,1.3,0,.3,19.6.5,39.2.8,58.8.2,19.4.5,38.8.7,58.2.1,11.1.3,22.2.5,33.3,0,.8-1.2.8-1.3,0h0Z"/>
    </g>
    <g>
      <path class="st7" d="M332.9,215.4c-.3.3-2.2,4.8-1.9,5.6.3.8,16.2,3.3,17.1,2.4.6-.7,1.1-3.7,1.3-5.3,0-.5-.3-1-.8-1.1l-15.7-1.7Z"/>
      <path class="st7" d="M346.8,223.8c-2.4,0-7.5-.7-11.1-1.4-1.7-.3-4.5-.9-4.7-1.3-.3-.8,1.6-5.4,1.9-5.7h0s15.7,1.7,15.7,1.7c.3,0,.5.2.7.4.2.2.2.5.2.7-.2,1.7-.7,4.7-1.3,5.3-.1.1-.6.2-1.3.2ZM332.9,215.5c-.3.4-2.1,4.8-1.8,5.6,0,.2,1.3.6,4.6,1.2,5.3,1,11.9,1.7,12.4,1.2.6-.7,1.1-3.9,1.3-5.3,0-.2,0-.5-.2-.7-.1-.2-.4-.3-.6-.3l-15.7-1.7Z"/>
    </g>
    <g>
      <path class="st7" d="M353.2,217.2s-1,7-.5,7.3c1.9,1,14.1,1.1,14.4.1s1.1-6.3-.3-6.7-13.4-1.2-13.7-.7Z"/>
      <path class="st7" d="M361.4,225.3c-3.6,0-7.7-.3-8.7-.8-.6-.3.3-6.6.4-7.3h0c.2-.4,4.1-.2,6.4,0,3,.2,6.5.5,7.3.7.2,0,.4.2.5.4.8,1.4,0,5.5-.2,6.3,0,0-.1.2-.3.2-.8.3-3,.5-5.6.5ZM353.3,217.2c-.4,2.8-.9,7-.5,7.2,1.7.9,12.2,1.1,14.1.3.2,0,.2-.1.2-.2.2-.8.9-4.9.2-6.2-.1-.2-.3-.3-.4-.4-.7-.2-3.9-.5-7.3-.7-4.2-.3-6.2-.2-6.4,0Z"/>
    </g>
    <g>
      <path class="st7" d="M371.7,218.2c-.2,0-1.4,5.6.6,6.4s19.7-.5,21.1-2.5c1.4-2-.8-6-1.3-6-1.3,0-5.9.8-20.4,2.1Z"/>
      <path class="st7" d="M375.3,224.8c-1.5,0-2.6,0-3-.2-1.5-.6-1.2-3.8-1.1-4.8,0-.4.3-1.7.5-1.7h0c8.3-.8,13.4-1.4,16.4-1.8,2.1-.3,3.3-.4,3.9-.4s0,0,0,0c.3,0,.7.7,1,1.3.7,1.5,1.2,3.5.3,4.8-.9,1.3-8.1,2.1-10.3,2.4-2.9.3-5.8.4-7.8.4ZM371.7,218.2c-.1.2-.7,2.7-.4,4.5.2,1,.5,1.6,1.1,1.8,2,.8,19.6-.5,21-2.5.6-.8.8-2.5-.3-4.7-.4-.8-.8-1.2-.9-1.2,0,0,0,0,0,0-.6,0-1.7.1-3.9.4-3,.4-8.1,1-16.4,1.8ZM371.7,218.2h0Z"/>
    </g>
    <path class="st0" d="M356.3,217.7c1.3-.1,2.6-.2,3.8-.2.3,0,.6,0,.9,0-.2,0,0,0,0,0,0,0,0,0,0,0,0,0-.2-.2-.2-.1,0,0,0-.2,0,0,.1.5.2,1,.3,1.5.2,1.6.4,3.2.4,4.8,0,.3,0,.6,0,.9,0,0,0,.1,0,.2,0,.1,0,0,0,0,0,0,0,0,0,.1,0,.1,0,0,0,0,0,0,.1-.1.2-.2,0,0,0,0,0,0,0,0-.1,0-.2,0,0,0,0,0,0,0,0,0,0,0-.1,0,0,0-.1,0-.2,0-.2,0-.4,0-.5,0-1.5,0-2.9,0-4.4-.2-.8,0-.8,1.1,0,1.2,1.4.1,2.8.2,4.2.2.6,0,1.5,0,2-.3.5-.3.5-1,.5-1.6,0-1.7-.1-3.4-.3-5.1,0-.7-.2-1.4-.3-2-.2-.6-.5-.8-1.1-.9-1.5-.1-3.1,0-4.7.2-.8,0-.8,1.3,0,1.2h0Z"/>
    <path class="st0" d="M357.3,221.9c2.5-.3,5.1-.3,7.7,0,.3,0,.6-.3.6-.6s-.3-.6-.6-.6c-2.5-.2-5.1-.2-7.7,0-.3,0-.6.3-.6.6,0,.3.3.6.6.6h0Z"/>
    <path class="st7" d="M392.1,223.2c2.4,1.1,3.4,4.9,4.2,7.1,1.6,4.6,2.7,9.4,3.6,14.2,3.1,14.9,5.1,30,7,45,4.2,33.3,7.3,66.8,9.9,100.3.8,10.2,1.7,20.4,2.1,30.6,0,.9,1.4.9,1.4,0-.9-24.9-3.5-49.9-5.9-74.7-3.2-33.3-6.2-67-13.2-99.8-1.2-5.5-2.4-11.1-4.5-16.4-.9-2.2-2-5.8-4.3-6.8-.4-.2-.8.4-.4.6h0Z"/>
  </g>
  <g>
    <path class="st7" d="M361.5,78.6c-4.4-.3-8.8.4-12.8,2.1-3.8,1.6-7.2,4.1-9.5,7.6-2.3,3.4-3.3,7.8-2.3,11.7.8,3.3,2.9,6.3,2.8,9.6-.1,3.9-3.2,7-6.2,9.5-3,2.4-5.7,5.2-7.7,8.5-1.5,2.5-1,5.6-1.8,8.4-.7,2.4-2.9,4-4.1,6.2-3.2,5.4-1.7,12.4,1.4,17.8,0,0,9.8,4.4,14.8,6.1,0,0-.3-9,3.7-12.4s21.7-14,21.7-14v-61Z"/>
    <path class="st16" d="M375.7,87.9c-8.2-11-25.5-9.2-31.3,3.2-1.8,3.9-2.6,9.1-2.3,16,.8,19.2,17.1,18.9,17.1,18.9l3,15.7,24.2-6.1-8.9-18.9s2-14.4.6-23.4c-.3-2-1.2-3.8-2.4-5.4Z"/>
    <path class="st7" d="M349.2,97.1c0,.7.5,1.3,1.2,1.3s1.2-.6,1.2-1.3-.5-1.3-1.2-1.3c-.6,0-1.2.6-1.2,1.3Z"/>
    <ellipse class="st7" cx="362.6" cy="97.4" rx="1.2" ry="1.3"/>
    <path class="st7" d="M368.9,90.9c-1.2-.7-2.9-1.1-4.2-1.1-1.3,0-2.4.3-3.7.4-.7,0-.9-1-.4-1.3,2.8-1.7,6.3-.4,8.7,1.3.4.3,0,.9-.4.7h0Z"/>
    <path class="st7" d="M359,106.7c-.4,2.6-4,3.3-6,2.1-.7-.4-.2-1.6.5-1.3,1,.4,1.9.6,2.9.2.8-.3,1.4-.9,2.1-1.4.2-.2.5.1.4.3h0Z"/>
    <path class="st7" d="M359.5,78.1c5.3-1.8,11.1-.3,16.1,2.2,2.8,1.4,5.5,3.2,7.5,5.6,1.7,2,2.9,4.4,4.1,6.8,2.2,4.4,4.4,8.8,6.5,13.1,0,0,5.9,8.7,10.1,11,4.2,2.3,13.9,11.5,13.1,19.5s8.8,16,5.9,27.2c-2.9,11.2-18.8,8.5-18.8,8.5,0,0-.6-32.2-13.2-30.3,0,0-7.7,1.5-9.4-2.6s-5.3-11.8-6-17.6.7-20.2-.3-25.6-11.4-12.5-15.6-15.2v-2.5h0Z"/>
    <g class="st18">
      <path class="st7" d="M361.1,102.3c0,1,1.6,1.9,3.7,1.9s3.7-.8,3.7-1.9-1.6-1.9-3.7-1.9c-2,0-3.7.8-3.7,1.9Z"/>
    </g>
    <g class="st18">
      <path class="st7" d="M344.2,102.3c0,1,1.6,1.9,3.7,1.9s3.7-.8,3.7-1.9-1.6-1.9-3.7-1.9c-2,0-3.7.8-3.7,1.9Z"/>
    </g>
    <path class="st16" d="M388.1,105.3c-.3-1.2-.9-2.3-1.9-3s-2.5-1.3-4.9,0v9.7c1.7,1,4.1.4,5.5-1,1.4-1.5,1.7-3.7,1.3-5.6Z"/>
    <path class="st7" d="M385.2,107.4c-.3-.2-1.1-.3-1.5-.3-.6,0-1,.3-1.5.7-.5.5-1.4-.1-1-.8.5-.8,1.4-1.2,2.3-1.2.4,0,.9.1,1.2.4.4.3.4.6.6,1,0,0,0,.2-.2.2h0Z"/>
    <path class="st7" d="M348.5,88.9c2.1-2.4,5.9-2,7.5.7,2.2,3.9.4,10.1-1.9,13.6-.5.8-1.7.1-1.3-.7,1.3-2.8,2.6-5.5,2.6-8.6,0-2.2-.5-4.7-3-5.2-1.1-.2-2.6.2-3.6.7-.3.2-.6-.2-.4-.5h0Z"/>
    <path class="st7" d="M358.9,79.2c-1.8-1.3-3.3-2.8-5.5-3.5-2.5-.8-4.7-.3-7.2.3-.5.1-.8-.6-.4-.9,4.1-2.4,11.5-.9,13.1,4,0,0,0,.1-.1,0h0Z"/>
    <path class="st7" d="M350.3,70.8c5.4,0,9.5,3.8,10.5,9.1.1.8-1.1,1.1-1.2.3-.8-4.7-4.6-8.3-9.3-9.2-.1,0-.1-.2,0-.2h0Z"/>
    <path class="st7" d="M367.9,123.2c-3,2.6-7,3.7-11,3.4-.8,0-.8-1.2,0-1.2,3.8,0,7.3-.8,10.9-2.2,0,0,0,0,0,0h0Z"/>
  </g>
  <g>
    <path class="st8" d="M382.1,137.6s-1-10.2-3.8-10.6c-3.1-.5-20.3,2.5-21.5,4.6-1.4,2.5.6,7,.6,7,0,0-11.7.6-14.9,2.6s-11.9,25.2-12.8,32c-2.7,19.7,1.5,40.6,1.5,40.6,0,0,55.9,4,61.3,0,5.5-4.1,6.4-70.5,6.4-70.5l-16.7-5.5Z"/>
    <path class="st7" d="M374.8,127.3c.6,2.8.9,5.7.9,8.5,0,.8-1.3.8-1.3,0,0-2.8-.3-5.5-.9-8.2-.2-.8,1-1.1,1.2-.3h0Z"/>
    <path class="st7" d="M367.8,128.8c-.1,2.6,0,5.2.5,7.7.1.8-1.1,1.1-1.2.3-.5-2.7-.7-5.4-.5-8.1,0-.8,1.3-.8,1.3,0h0Z"/>
    <path class="st7" d="M360.9,130.2c-.1,2.6,0,5.2.5,7.7.1.8-1.1,1.1-1.2.3-.5-2.7-.7-5.4-.5-8.1,0-.8,1.3-.8,1.3,0h0Z"/>
  </g>
  <g>
    <path class="st8" d="M343.4,140.6s-5.8.7-9.8,4.8-23.9,32.7-23.9,32.7c0,0-8,0-6.8,21,.7,11.1,3.5,17.4,15.5,15.1,11.9-2.3,13.8-21.4,13.8-21.4,0,0,12.8-51,11.3-52.3Z"/>
    <g>
      <g>
        <path class="st16" d="M324.6,168.4s3.2-1.1,4.8-5.1c1-2.5,2.1-4.6,3.3-6.5,1.1-1.7,3.1-4,2.1-5.2-1-1.1-2.6-1.4-4.2-.2s-2.7,2.8-3.9,4.9c0,0-.3-3.2-.8-6.3-.4-2.8-1.3-12.9-3.9-12.5,0,0-1.9,0-1.6,2.2s1.1,9.8.8,10.8c-.2,1,0,1-.6,1.1s-.9-3.2-1.2-4c-.3-.7-1.2-7.6-3.5-9.7-.8-.8-2.1-.5-2.7.5-.3.5-.5,1.3-.3,2.4,0,0-1.1-2.2-2.7-1.2-1.6,1-1.1,5.4-.8,6.3.3.9,1.8,6.2,1.2,7-.5.7-.7.3-1.1-.2-.4-.5-3.5-5.4-6.4-5.7-2.4-.2-2.2,2.1-.7,3.9.9,1,3.9,4.6,4.6,7.6s2.1,6.3,2.6,7.5c1.1,2.5,1.9,2.3,1.8,4,0,1.7-2.1,12.7-2.1,12.7,0,0,12.5,5,13.6,1,.5-2,1.7-15.2,1.7-15.2Z"/>
        <path class="st7" d="M312.1,140.1c1.4,4.1,2.3,8.4,2.7,12.8,0,.7,1.2.6,1.2-.1-.4-4.4-1.3-8.8-2.7-13.1-.2-.7-1.3-.3-1.1.4h0Z"/>
      </g>
      <path class="st7" d="M326.3,156.6c-2.2-.7-4.8-.3-6.7,1.1-1.9,1.4-3.1,3.8-3,6.2,0,.7,1.2.6,1.2-.1,0-2,1-4,2.7-5.2,1.6-1.2,3.8-1.5,5.7-.9.3,0,.6-.2.7-.5,0-.3-.2-.6-.5-.7h0Z"/>
      <path class="st7" d="M308.1,183.2c5.5,1.7,11.6,3.4,16.9.4.6-.4,0-1.3-.7-1-5,2.9-11,1.1-16.1-.5-.7-.2-.9.9-.2,1.1h0Z"/>
    </g>
  </g>
  <path class="st7" d="M331,213.9c.2-5.1-.9-10.4-1.3-15.5-.4-5.2-.6-10.4-.3-15.6.5-10.7,3.5-19.9,8.3-29.4.2-.5-.4-.8-.7-.4-5.7,7.6-8,18-8.7,27.3-.5,5.7-.2,11.4.2,17.1.4,5.4.7,11.2,2.3,16.5,0,.1.2.1.2,0h0Z"/>
  <g>
    <path class="st7" d="M357.1,114.9s7.2.3,7.9,4.5c.8,4.3,2,12.5-1.2,15.4-3.2,2.9-12.4,1.3-13.4,0-1-1.3-2-1.3-2.1-5.1-.1-3.8.5-8,1-10.2.5-2.2,3-4.7,7.8-4.6Z"/>
    <path class="st14" d="M349.3,133.2c-.8-2.2-.8-4.6-.7-6.9,0-2.3.3-4.6,1-6.8.1-.4-.5-.6-.7-.2-.7,2.2-.9,4.6-1,6.9,0,2.3,0,4.9.7,7.1.2.4.8.2.7-.2h0Z"/>
    <path class="st10" d="M369,133.3v12.7l-4,3.1h-15.9l-3.6-3.1v-12.8h23.6Z"/>
    <path class="st7" d="M362.5,147.5s-1.3,27.7-2.4,29.8-6,1.1-6.4-.2c-.4-1.3-2-29.3-2-29.3,0,0,2.1-.9,5.5-.9,1.5,0,3.4,0,5.3.6Z"/>
    <path class="st7" d="M368.8,145.7h-23.2c-.5,0-.5.7,0,.7h23.2c.5,0,.5-.7,0-.7h0Z"/>
    <g>
      <path class="st0" d="M347.4,143.2c0,0-.1,0-.2,0,0,0-.1,0-.2,0s0-.1,0-.2l-.4-4.8c0-.1,0-.2,0-.3,0,0,.2-.1.3-.1,0,0,.2,0,.2,0,0,0,.1,0,.2.2.2.3.4.5.7.8.3.3.5.5.8.8.3.3.5.6.8.8s.5.6.7.8c0-.4,0-.8,0-1.2,0-.4,0-.8,0-1.2,0-.4,0-.8,0-1.1,0-.1,0-.2,0-.3,0,0,.2-.1.3-.1,0,0,.1,0,.2,0,0,0,.1,0,.2.1,0,0,0,.1,0,.2,0,.4,0,.9,0,1.4,0,.5,0,.9,0,1.3s0,.8,0,1.2c0,.4,0,.7,0,1,0,0,0,.1,0,.2,0,0,0,0-.1.1,0,0-.1,0-.2,0,0,0-.2,0-.2,0,0,0-.1,0-.2-.2-.2-.2-.3-.5-.5-.7-.2-.2-.4-.5-.6-.7-.2-.2-.4-.5-.6-.7-.2-.2-.4-.4-.7-.7-.2-.2-.4-.4-.6-.6l.3,3.6c0,.1,0,.2-.1.3,0,0-.2,0-.3.1Z"/>
      <path class="st0" d="M352.3,137.5c0-.1,0-.2.1-.3,0,0,.2,0,.3-.1.1,0,.2,0,.3,0,0,0,.1.1.1.2,0,.8.1,1.6.2,2.4,0,.8.1,1.6.1,2.4,0,.1,0,.2-.1.3,0,0-.2,0-.3.1-.1,0-.2,0-.3,0,0,0-.1-.1-.1-.3,0-.5,0-1.1,0-1.6,0-.5,0-1.1-.1-1.6,0-.5,0-1.1-.1-1.6ZM352.9,137.8c-.1,0-.2,0-.3,0s-.1-.1-.1-.3c0-.1,0-.2,0-.3,0,0,.1-.1.3-.1.5,0,1,0,1.3-.1.4,0,.7,0,1,0,.1,0,.2,0,.3,0,0,0,.1.1.1.3,0,.1,0,.2,0,.3,0,0-.1.1-.3.1-.2,0-.4,0-.7,0-.2,0-.5,0-.8,0-.3,0-.6,0-.9,0ZM353.1,140.1c-.1,0-.2,0-.3,0,0,0-.1-.2-.1-.2,0-.1,0-.2,0-.3,0,0,.1-.1.2-.1.2,0,.3,0,.5,0,.2,0,.4,0,.5,0,.2,0,.3,0,.5,0,.1,0,.3,0,.3,0,.1,0,.2,0,.3,0,0,0,0,.1.1.2,0,0,0,.2,0,.3,0,0-.1.1-.2.1,0,0-.2,0-.3,0-.1,0-.3,0-.5,0-.2,0-.4,0-.5,0s-.4,0-.5,0ZM353.2,142.6c-.1,0-.2,0-.3,0,0,0-.1-.2-.1-.2,0-.1,0-.2,0-.3,0,0,.1-.1.2-.1.4,0,.8-.1,1.2-.2.4,0,.8,0,1.2-.1.1,0,.2,0,.3,0,0,0,0,.1.1.2,0,0,0,.2,0,.3,0,0-.1.1-.2.1-.4,0-.8,0-1.2.1-.4,0-.8.1-1.2.2Z"/>
      <path class="st0" d="M356.3,137.3s0,0,0-.1c0,0,0,0,0-.1,0,0,0,0,0-.1,0,0,0,0,.1-.1,0,0,.1,0,.2,0,0,0,.2,0,.2,0,0,0,.1,0,.2,0,0,0,0,0,0,.1.2.3.3.7.4,1.1.1.4.3.7.4,1.1.1.4.2.8.3,1.2,0-.4.2-.8.3-1.2.1-.4.3-.8.4-1.2s.3-.8.4-1.1c0-.2.1-.3.2-.4,0-.1.2-.2.3-.2.1,0,.2,0,.3,0,0,0,.1.1.1.2,0,0,0,0,0,.2,0,0,0,.2,0,.3.2.4.3.7.5,1.1.2.3.4.7.5,1.1.2.4.4.7.5,1.1.1-.6.3-1.3.5-1.9.2-.6.4-1.3.6-1.9,0,0,0-.1.1-.2,0,0,.1,0,.2,0,0,0,.1,0,.1,0,0,0,0,0,.1,0,0,0,.1,0,.2.1,0,0,0,.1,0,.2,0,0,0,0,0,.1-.2.5-.4,1.1-.6,1.6-.2.5-.3,1-.5,1.6-.1.5-.2,1-.3,1.6,0,0,0,.2,0,.2,0,0,0,0-.1.1,0,0-.1,0-.2,0,0,0-.2,0-.3,0,0,0-.1-.1-.2-.3,0-.3-.2-.6-.4-.9-.1-.3-.3-.6-.5-1-.2-.3-.3-.6-.5-.9-.1-.3-.3-.5-.4-.7-.1.4-.2.7-.3,1.1-.1.3-.2.6-.3.8,0,.2-.1.5-.2.7,0,.2-.1.4-.1.7s0,.5-.1.7c0,0,0,.2,0,.2,0,0,0,0-.2.1,0,0-.1,0-.2,0-.1,0-.2,0-.3,0,0,0-.1-.2-.2-.4-.1-.5-.3-1-.4-1.5s-.3-1-.5-1.4c-.2-.5-.4-.9-.6-1.4Z"/>
      <path class="st0" d="M367.5,136.1s0,0,0,0c0,0,0,0,0,.1,0,0,0,.1,0,.2,0,0,0,.1-.1.2,0,0-.1,0-.2,0,0,0-.1,0-.2,0,0,0-.1,0-.2,0-.2,0-.3-.1-.5-.1-.2,0-.3,0-.6,0-.2,0-.4,0-.5.1-.1,0-.2.2-.3.3,0,.1,0,.2,0,.3,0,.1,0,.3.2.3.1,0,.3.2.4.2.2,0,.4.1.6.2.4.1.7.3,1,.4.3.1.5.3.6.5.1.2.2.4.2.7,0,.2,0,.4,0,.6,0,.2-.2.4-.3.5-.1.2-.3.3-.5.4-.2.1-.5.2-.7.2-.2,0-.4,0-.6,0-.2,0-.4,0-.6-.1-.2,0-.3-.1-.4-.2-.1,0-.2-.2-.2-.3,0,0,0-.1,0-.2,0,0,0-.1.1-.2,0,0,.1,0,.2,0,0,0,0,0,.1,0,0,0,.1,0,.2,0,.1,0,.3.1.5.2.2,0,.4,0,.7,0,.2,0,.4,0,.5-.1.1,0,.2-.2.3-.3,0-.1.1-.2,0-.4,0-.1,0-.3-.2-.4-.1-.1-.2-.2-.4-.3-.2,0-.4-.2-.7-.3-.2,0-.4-.1-.6-.2-.2,0-.4-.2-.5-.3-.2-.1-.3-.2-.4-.4-.1-.2-.2-.4-.2-.6,0-.3,0-.5.2-.7.1-.2.3-.4.6-.5s.6-.2,1-.3c.3,0,.6,0,.9,0,.3,0,.5.1.7.3Z"/>
    </g>
    <path class="st13" d="M362.5,148.2c-3.5-.6-7.1-.5-10.6.2-.5.1-.3.8.2.7,3.4-.7,6.8-.8,10.2-.2.5,0,.6-.6.2-.7h0Z"/>
    <path class="st13" d="M361,170.3c-2.5-.6-5.2-.7-7.6.1-.4.2-.2.8.2.7,2.3-.8,4.9-.7,7.3-.1.4.1.6-.6.2-.7h0Z"/>
    <path class="st0" d="M361.8,118.2c1.2,1.4,1.8,3.2,1.6,5.1,0,.5.7.5.7,0,.2-2-.5-4.1-1.8-5.6-.3-.3-.8.2-.5.5h0Z"/>
  </g>
  <rect x="346.1" y="133.6" width="7.4" height="12"/>
  <rect class="st3" x="353.5" y="133.6" width="15" height="12"/>
  <text class="st2" transform="translate(355.6 140.8) scale(1.1 1.1)"><tspan x="0" y="0">NEGO</tspan></text>
  <path class="st7" d="M359.6,116.6c1.7.2,3.3,1.4,4,3,0,.2.2.3.4.2.2,0,.3-.3.2-.4-.8-1.9-2.6-3.3-4.7-3.6-.2,0-.4.2-.4.4,0,.2.2.3.4.4h0Z"/>
  <g>
    <path class="st16" d="M353.2,172c-1.6-.3-2.5-1.8-2.7-3.3-.2-1.8.8-2.9.8-2.9,0,0-5.1-2-1.6-5,0,0-1.7-3.6.8-4.9.5-.3-1.1-7.5,2.7-10,3.7-2.4,15.7.9,17.1,6.3,1.3,5.4-2.4,15.5-2.4,15.5,0,0,6.7,1.5,6.4,1.9-2.7,5-3,11.6-3.4,14.1-3.6.9-9.5-1.9-10.4-4.9-.9-3-.4-7.6-.4-7.6l-7.1-.3"/>
    <path class="st7" d="M366.7,154.8c-2.6-.2-5.2-.3-7.9-.1-2.7.2-5.6.4-8,1.7-.6.3-1.1-.6-.5-.9,2.4-1.3,5.4-1.7,8.1-1.9,2.8-.2,5.5-.2,8.3,0,.7,0,.7,1.1,0,1.1h0Z"/>
    <path class="st7" d="M356.2,151c.8.3,1.6.6,2.4,1,.8.4,1.4.9,2,1.5.5.5-.3,1.2-.8.7-.6-.5-1.1-.9-1.8-1.3-.7-.4-1.4-.6-2.1-.9-.3-.1-.5-.4-.4-.7,0-.2.4-.5.7-.4h0Z"/>
    <path class="st7" d="M356.4,152c-.3.4-.5.8-.8,1.3,0,.1-.1.2-.2.3,0,0,0,.1,0,.2,0,0,0,0,0,0,0,0,0,0,0,0,0,.1,0,.2-.1.3,0,0,0,.1,0,.2,0,0,0,.2,0,0,0,.1,0,.3-.2.4,0,0-.3.2-.4.2-.3,0-.6-.2-.5-.5.2-1.1.8-2,1.4-3,.1-.2.5-.3.7-.2s.3.5.2.7h0Z"/>
    <path class="st7" d="M350.1,160.3c4.3-1.2,8.8-1.6,13.3-1.4.7,0,.7,1.1,0,1.1-4.4-.3-8.8.2-13,1.3-.7.2-.9-.8-.3-1h0Z"/>
    <path class="st7" d="M351.3,165.2c3.7-1.7,7.8-1.7,11.8-1.3.7,0,.7,1.1,0,1.1-3.8-.4-7.7-.4-11.2,1.2-.6.3-1.2-.6-.5-.9h0Z"/>
  </g>
  <path class="st8" d="M381.4,139.1c.7-1.4,17.3-1.6,22.6,7.9,5.3,9.4,17.9,44.7,15.1,56-1.7,6.7-10.8,12.8-17.3,11.5-13.5-2.8-32.8-17.4-34-23.6-1.6-9.1,0-23.6,5.7-22.6,5.7,1.1,19.8,7.9,19.8,7.9l-12-37.2Z"/>
  <path class="st7" d="M417.4,186.6c3.8,9.8,1.4,26.4-11.4,27.6-4.4.4-8.6-2.2-12.5-4-6.7-3.2-13.1-7.1-18.6-12.1-3.7-3.4-6.8-5.9-7-11-.1-4.2-.9-13.7,2.6-16.5,3.7-2.9,14.1,2.7,17.9,4.4,6.4,2.7,12.7,5.8,18.8,9.3.8.4,1.5-.8.7-1.2-6.1-3.5-12.5-6.6-18.9-9.4-4.8-2-10.8-5.2-16-5.4-3.3-.1-4.9,2.2-5.7,5.2-1.2,4.7-1.4,11.2-.7,16,.4,2.7,1.7,3.9,3.5,5.9,4.6,5.3,10.5,9.5,16.5,12.9,6.9,3.9,16.3,10.1,24.3,5.9,9.7-5.1,11.1-18.4,7.3-27.7-.2-.5-1-.3-.8.2h0Z"/>
  <path class="st7" d="M391.8,175.8c0-3-1-5.9-1.7-8.8-.8-3.4-1.6-6.7-2.5-10.1-.3-1-1.7-.6-1.5.4.9,3.3,1.8,6.7,2.8,10,.8,2.8,1.4,5.9,2.8,8.5,0,0,.1,0,.1,0h0Z"/>
  <g id="Character_1">
    <g>
      <g>
        <path class="st7" d="M171.9,474.2c-9.8,2.5-30.8,8.6-32.6,6.8-1.3-1.3-4.6-4.2-3.6-7.9,1.2-4.5,1.9-9.8,2.1-14.3h0v-26.6c-.1,0,20.9,1.6,20.9,1.6-2.4,5.7-6.4,22.4-1.8,24.3.1,0,.3.1.4.2.9.3,1.8.3,2.6.5,4.4,1.3,23.2,3.4,29.1,4.8,1.1.3-1.5-4-1.4-3.8.6,1.9-.5,10.4-15.7,14.3Z"/>
        <path class="st8" d="M134.4,479.7c1,3.7,6.4,4.9,13.3,4.4,6.9-.5,14.9-4.6,18.2-5.4,3.4-.8,6.1-.7,11.5-3.2,5.4-2.5,12.5-10,12.3-14.9,0,0-.1-.6-.5-1.3-.7-1.3-1.3-2-4.2-2.4-4.6-.5-21,.6-21,.6,0,0-4.5-8.3-7.8-6.8-3.4,1.5-.7,8.3-.7,8.3,0,0-3.2,5.5-9.1,5,0,0-1.7-2.8-3.7-4.6-2.3-2-5.2-2.5-5.2-2.5,0,0-2.2,10.1-2.9,17.1-.3,2.6-.4,4.7-.1,5.7Z"/>
        <path class="st17" d="M134.4,479.7c1,3.7,6.4,4.9,13.3,4.4,6.9-.5,14.9-4.6,18.2-5.4,3.4-.8,6.1-.7,11.5-3.2,5.4-2.5,12.5-10,12.3-14.9,0,0-.1-.6-.5-1.3-.8,2.9-3.1,5.3-6.9,7.7-5.8,3.6-14.2,6.4-20.3,8.2-5.1,1.5-11.7,3-15.8,3.7-4,.7-11.4-4.7-11.7-4.9-.3,2.6-.4,4.7-.1,5.7Z"/>
        <path class="st0" d="M175.8,462.8c-.6-.7-.7-1.7-1.1-2.5-.5-1.1-1.2-1.9-1.9-2.7-.5-.5.2-1.6.8-1.1,1,.7,1.7,1.8,2.2,2.9.4,1,.9,2.4.2,3.4,0,0-.2.1-.3,0h0Z"/>
        <path class="st0" d="M169.3,457.2c.9-.3,1.7,1.3,2,1.9.6,1.2,1.1,2.5,1.1,3.9,0,.8-1.3,1.1-1.5.2-.4-1.5-.6-2.8-1.3-4.2-.1-.2-1.1-1.6-.4-1.8h0Z"/>
        <path class="st0" d="M164.2,457c1.9,1.8,2.6,4.6,2,7.1-.2.9-1.8.8-1.7-.2.2-2.4-.1-4.3-1-6.5-.2-.4.4-.7.7-.4h0Z"/>
        <path class="st17" d="M175,471.3c-6.1,0-11.7-2.3-17.8-.3-6,2-9.7,6.4-13.9,10.8-.7.7-2-.2-1.4-1.1,6.9-10.8,21.4-16.1,33.2-9.7.2,0,0,.4-.1.4h0Z"/>
      </g>
      <g>
        <path class="st7" d="M91,473.8c-10.1.6-31.9,2.4-33.3.3-1.1-1.5-3.7-5-2-8.4,2.1-4.2,3.8-9.2,4.9-13.6h0l5.1-26.1,20.3,5.7c-3.5,5.1-10.7,20.8-6.6,23.4.1,0,.3.2.4.2.8.4,1.7.6,2.4,1,4.1,2.1,22,7.9,27.6,10.5,1,.5-.6-4.2-.6-4,.2,2-2.5,10.1-18.2,11Z"/>
        <path class="st8" d="M53.2,471.7c.3,3.8,5.3,6.1,12.2,6.9,6.9.9,15.5-1.5,18.9-1.7,3.5-.2,6.1.5,11.9-.9,5.8-1.4,14.2-7.3,15-12.1,0,0,0-.6-.2-1.4-.4-1.4-.9-2.2-3.7-3.1-4.4-1.4-20.7-3.6-20.7-3.6,0,0-2.7-9-6.4-8.2-3.6.8-2.3,8-2.3,8,0,0-4.2,4.7-9.9,3.1,0,0-1.1-3.1-2.7-5.2-1.9-2.4-4.6-3.5-4.6-3.5,0,0-4.1,9.5-6.2,16.2-.8,2.5-1.3,4.5-1.2,5.6Z"/>
        <path class="st17" d="M53.2,471.7c.3,3.8,5.3,6.1,12.2,6.9,6.9.9,15.5-1.5,18.9-1.7,3.5-.2,6.1.5,11.9-.9,5.8-1.4,14.2-7.3,15-12.1,0,0,0-.6-.2-1.4-1.3,2.6-4.1,4.6-8.3,6.1-6.4,2.4-15.2,3.5-21.6,4-5.3.4-12.1.7-16.2.5-4-.1-10.3-6.8-10.5-7.1-.8,2.5-1.3,4.5-1.2,5.6Z"/>
        <path class="st0" d="M97.2,462.8c-.4-.7-.3-1.7-.5-2.5-.3-1-.8-1.8-1.4-2.7-.4-.7.5-1.4,1.1-.8.8.9,1.4,2,1.6,3.2.2.9.3,2.2-.5,2.9,0,0-.2,0-.3,0h0Z"/>
        <path class="st0" d="M91.5,456.1c1,.1,1.3,1.5,1.6,2.3.4,1.3.6,2.7.3,4.1-.2.9-1.5.6-1.5-.2,0-1.3,0-2.5-.3-3.7-.2-.7-.7-1.7-.3-2.4,0,0,0,0,.1,0h0Z"/>
        <path class="st0" d="M87.7,455.7c1.5,2.1.8,4.9-.2,7.1-.4.9-1.9.3-1.6-.7.7-2.1,1.4-3.9,1-6.1,0-.5.5-.7.8-.3h0Z"/>
        <path class="st17" d="M94.7,471.5c-6.3-1.3-11.3-4.7-18.1-3.7-6,.9-10.3,4.4-15,7.7-.9.6-1.8-.7-1.1-1.4,8.9-9.2,24.2-11.5,34.4-3,.2.1,0,.4-.2.3h0Z"/>
      </g>
      <g>
        <g>
          <g>
            <g>
              <path class="st15" d="M111.2,120.8c4.1-19.5,6.1-41.4,26.1-41.5,16.4,5.3,16.3,19.7,16.3,19.7,3.4,1.4,6.8,2.8,10.2,4.2.4.2.9.4,1.1.8.4.8-.2,1.7-.9,2.3-2.2,2-4.8,3.4-7.6,4.1l-.4,1.9c-.5,5.7-3.8,11-8.5,13.9-4.8,2.9-10.9,3.3-15.9,1.1l-2.5,10.3-19.8-2.4,2.1-14.3Z"/>
              <path class="st7" d="M147.5,98.2c0,.8-.7,1.3-1.3,1.2-.7,0-1.1-.7-1.1-1.5,0-.8.7-1.3,1.3-1.2.7,0,1.1.7,1.1,1.5Z"/>
              <path class="st7" d="M140.1,91.3c2.7-1.7,6.5-2.7,9.3-.6.6.5.1,1.5-.6,1.3-1.4-.3-2.6-.8-4.1-.8-1.4,0-2.9.2-4.2.8-.4.2-.8-.5-.4-.7h0Z"/>
            </g>
            <g class="st18">
              <path class="st7" d="M135.7,102.6c-.1,1.1,1.7,2.2,4.1,2.4,2.3.2,4.3-.5,4.4-1.6s-1.7-2.2-4.1-2.4c-2.3-.2-4.3.5-4.4,1.6Z"/>
            </g>
          </g>
          <path class="st7" d="M152.1,112c-1.8,0-3.4-.5-4.8-1.6-1.2-.9-2.7-2.5-2.7-4.1,0-.4.6-.6.9-.3.5.5.7,1.1,1,1.6.4.6.9,1.2,1.4,1.7,1.1,1,2.6,1.7,4.1,2,.4,0,.4.8,0,.8h0Z"/>
        </g>
        <path class="st7" d="M137.7,76.6c-1.7-.9-3.5-1.7-5.4-2.2-4.2-1.2-8.9-1-12.7,1.7-2,1.4-4.3,2.6-6.4,3.8-2.5,1.4-4.8,2.5-7.4,3.7-4.4,2.1-7.4,7.7-7,13.1.2,2.2,2.4,2.8,4.7,3.7,1,9.2,5.4,18.3,7.5,21.6,13.4,1.3,11.3-13.6,13.6-15.9,4.2-4.4,16.6-8.3,7.2-17.5-3.3-3.3-.5-13.2,14-4.8,1-3.4-2.6-6-8-7.2Z"/>
        <path class="st15" d="M121,100.6c.4-1.8,1.4-3.5,3-4.2,1.6-.8,7.6.5,7.2,4.8l-5.4,7.9c-1.4-.6-3.9-2.6-4.5-4-.6-1.4-.7-3-.4-4.5Z"/>
        <path class="st7" d="M129.7,105.3c-.4-.3-.9-.4-1.3-.8-.5-.4-1-.8-1.4-1.2-.9-.8-2.1-1.4-2.8-2.2-.6-.6.3-1.4,1-1.2,1.1.4,2.2,1.6,3,2.4.4.4.9.9,1.3,1.4.3.5.3.9.5,1.4,0,.1,0,.2-.2.1h0Z"/>
      </g>
      <g>
        <g>
          <path class="st6" d="M102,216.5s-6.1,14.7-10,27.3c-3.8,12.4-7.9,33.1-7.9,33.1,0,0-29.7,154.7-27.9,162.1s30.6,8.4,33.5,4.7c3-3.7,34.7-156,34.7-156,0,0-4.8,152.1,2,158.7s37.1,4.5,40.1-1.3c2.6-5,3.9-153.3,1.2-190.6,0-1.2-.3-2.7-.5-4.3-1.7-11.8-5.2-23.4-10.4-34.3l-.5-1.1-54.1,1.8Z"/>
          <path class="st7" d="M111.7,279.1c5.6,4.6,11.1,9.1,16.7,13.7.6.5,1.4-.4.8-.8-5.6-4.6-11.1-9.1-16.7-13.7-.6-.5-1.4.4-.8.8h0Z"/>
        </g>
        <path class="st8" d="M91.9,237.8c-1,1.2-8.3,19.2-5.8,26.7,2.4,7.2,32,16.5,51.6,13.8s21.4-18.7,21.4-18.7c0,0,7.6,15.1,11.6,13.7,4-1.4,3.5-25.9,0-31.9-3.5-6-78.7-3.6-78.7-3.6Z"/>
      </g>
      <path class="st13" d="M104.6,224.5c18.4-.1,36.9-.2,55.3-.3,1,0,1-1.6,0-1.6-18.4.1-36.9.2-55.3.3-1,0-1,1.6,0,1.6h0Z"/>
      <path class="st6" d="M176.8,190.7c-.5-.7-17-43.8-25.8-46.5-6.7-2-10.6,21.4-11.3,33.2-.6,11.9,16.8,42.5,23.2,46.1,6.5,3.5,17.1-1.1,22.4-8.8,5.8-8.4-6.2-13.4-7.2-15.3l-1.4-8.7Z"/>
      <g>
        <path class="st6" d="M169.1,217s17.8,28.1-11.6,28.6c-13.6.3-64.4-3.3-65.9-8.3-2.3-7.9,1.8-17.8,1.8-17.8"/>
        <path class="st6" d="M131.6,138.3c1.2.4,14.1,1.3,20.9,7.1s12.3,66.8,10.1,72.8c-2.3,6.1-60.1,9.8-67.5,1.8-7.4-8-15-57.5-15-57.5.3-7.6,22.4-23.4,29.3-24.1l22.3-.2Z"/>
        <path class="st6" d="M132.6,139.1s-20.6-25.6-33.6-22.1c-13,3.5-17.4,30-8.6,33,22,7.6,37.9-2.8,42.2-10.9Z"/>
        <path class="st0" d="M125.8,142.8c-11.4-5.7-22.7-9-35.4-10.5-1-.1-1-1.6,0-1.5,12.5.6,25.2,4.6,35.8,11.4.4.3,0,.9-.4.7h0Z"/>
        <path class="st0" d="M137.5,163.5c-14.9,9.1-35.8,9.4-52.4,5.8-1.2-.3-.7-2.1.5-1.8,8.6,2,17.4,2.7,26.1,1.8,9-.9,16.9-4,25.4-6.6.5-.1.7.5.3.8h0Z"/>
        <path class="st0" d="M146.3,200.2c-7.7,4.4-18.2,5.6-27,6.2-9.9.7-19.8,0-29.5-1.8-1.2-.2-.7-2.1.5-1.9,9.2,2,18.7,2.9,28.1,2.3,9.6-.6,18.4-3.7,27.9-5,0,0,0,0,0,0h0Z"/>
        <g class="st9">
          <path class="st7" d="M127.1,147c0,1-.4,1.7-1.5,1.8-.8-.5-1.3-1.6-.8-2.2.1,0,.2-.2.3-.2.2,0,.4-.1.6-.2.5.2,1,.4,1.4.8Z"/>
          <path class="st7" d="M86.5,169.9c-.5-1.8,2.2-2.3,2.7-.5-.5,1.2-1.7,1.2-2.7.5Z"/>
          <path class="st7" d="M83.4,168.9c0,.1,0,.3,0,.4,0-.1,0-.3,0-.4Z"/>
          <path class="st7" d="M102.8,170.5c.2-1.6.9-3.4,2.5-1.7.6,1.1-1.5,1.7-2.5,1.7Z"/>
          <path class="st7" d="M84.2,167.4c-1-.9,0-1.6.8-2,.4.3.8.6,1.1.8,0,.4,0,.7.1,1.1-.6.5-1.5,1.2-2,.1Z"/>
          <path class="st7" d="M88.4,148.6c-.2.1-.4.2-.7.3-.2-.2-.5-.4-.8-.5v-.3c0,0,.6.2,1.5.5Z"/>
          <path class="st7" d="M85.9,162.1c-.5.3-1.4.8-1.7,0-.6-2.5-.2-2.5,1.9-1.4,0,.6.2,1.1-.2,1.5Z"/>
          <path class="st7" d="M118.8,167.2c-.3.3-.6.5-1,.8-1.6-.5-1.9-2.1-.2-2.6.6.4,1.1.9,1.4,1.6,0,0-.1.2-.2.3Z"/>
          <path class="st7" d="M115.7,170.4c-1.4,1.1-2.9-2-.7-2.3,1.4.3,1.2,1.4.7,2.3Z"/>
          <path class="st7" d="M111.6,162c-.8-.5-.3-1.2,0-1.8.6-.9,1.9.2,1.7,1.1.2,1-1.2,1.4-1.8.8Z"/>
          <path class="st7" d="M107.9,155.3c.1.8,0,1.4-.7,1.7-2.3.5-1.1-4.4.7-1.7Z"/>
          <path class="st7" d="M129.2,144.1c-.1.5-.3,1.2-.5,2-1,0-1.4-.8-1.2-1.5.4-.4.8-.7,1.1-1,.2.1.4.3.6.5Z"/>
          <path class="st7" d="M97.9,152.2c2.1-.4,2.9,1.3.8,2.2-1-.1-1.5-1.4-.8-2.2Z"/>
          <path class="st7" d="M87.3,175.9c-.2-.6-.9-1.1-.5-1.9,1.1-.6,1.8-.3,2.4.8-.4.7-.9,1.3-1.9,1Z"/>
          <path class="st7" d="M100.5,167.7c-.7-.8.2-2.2,1.1-2.4.3.4.6.7.9,1.1,0,1.1-1.1,1.7-2,1.2Z"/>
          <path class="st7" d="M122,156.4c.3-1.9,1.8-2.9,2.2-.5-.3,1.3-1.4,1.2-2.2.5Z"/>
          <path class="st7" d="M90.6,151.7c-.7-.1-1.1-.5-1.3-1.2.3-.4.5-.9,1-1.2.4.1.8.3,1.2.4.1,0,.2.2.3.3-.3.7-.4,1.3-1.1,1.7Z"/>
          <path class="st7" d="M120.3,151.8c1.2.3,1.5.8,1.1,2-1.6,1.1-3.1-1.3-1.1-2Z"/>
          <path class="st7" d="M108.7,164.9c-.5-.6-.2-1.8.6-2.4,2,.7,1.6,3-.6,2.4Z"/>
          <path class="st7" d="M122.1,160.6c.4-.6.8-.7,1.2-.6-.3.6-.6,1.2-1,1.8-.1-.4,0-.8-.2-1.2Z"/>
          <path class="st7" d="M110.7,157.7c0,.9-.3,1.6-1,2-.8-.3-1.1-.6-1.4-1.4.6-.9,1.3-1.3,2.4-.7Z"/>
          <path class="st7" d="M93.1,157.3c1.6.3,1.7,2.2,0,2.5-.4-.4-1-.7-1.2-1.5.4-.3.6-.8,1.2-.9Z"/>
          <path class="st7" d="M99.4,179.3s0,0,0,0c-.6,0-1.1.1-1.6.2.4-.4,1-.1,1.6-.2Z"/>
          <path class="st7" d="M86.8,157.6c2.2-.7,2.8.9,1,2.2-.2-.1-.4-.2-.6-.3.2-.7-.3-.7-.8-1,.1-.3.3-.6.4-.8Z"/>
          <path class="st7" d="M120.1,159.6c-1.1-.7-.9-1.7.1-2.3.6-.5.9.3,1.2.7.6,1-.4,1.4-1.3,1.6Z"/>
          <path class="st7" d="M115.1,154.1c-.4,0-.6,0-.8-.4,0-.5-.5-.8-.7-1.2.6-.2,1.2-.4,1.8-.6.8.7,1.2,1.9-.3,2.2Z"/>
          <path class="st7" d="M102.7,164.2c.6-1.3,2.1-2.1,2.5-.2,0,1.5-1.7,1.1-2.5.2Z"/>
          <path class="st7" d="M93.8,179.4c-.4,0-.8-.1-1.2-.2.1,0,.3-.1.5-.1.3,0,.5.2.7.3Z"/>
          <path class="st7" d="M91.3,156.5c-.4.1-.9.2-1.4.3-1.9-2.7,2.9-3.2,1.4-.3Z"/>
          <path class="st7" d="M95.9,168c-.4-.3-.7-.6-1.1-.8-.2-1.1.9-2.2,1.6-1.4.8,1,.7,1.7-.6,2.2Z"/>
          <path class="st7" d="M127.6,149.7c0,.2-.1.4-.2.5,0-.1-.1-.2-.2-.3.1-.1.2-.2.3-.3Z"/>
          <path class="st7" d="M107.7,176.9c-.6.3-1.1.5-1.7.8.2-1.4.9-1.7,1.7-.8Z"/>
          <path class="st7" d="M99.7,163.2c0,.6-.1,1-.1,1.5-.3.2-.6.3-1,.5-1.8-1.1-.8-3,1.2-2Z"/>
          <path class="st7" d="M94.9,172.9c-.3-1.3.6-1.7,1.5-2.1.5.4.4,1,.8,1.4-.6,1-1.4.8-2.3.7Z"/>
          <path class="st7" d="M89.8,165.6c1.3-.2,1.1.4,1.8,1-.5,2.2-3.3.9-1.8-1Z"/>
          <path class="st7" d="M85.2,157.1c-.4,0-.6-.2-.8-.3l.6-2.1c1.2.2,1.6,1.9.1,2.4Z"/>
          <path class="st7" d="M110.6,153.1c0,0,.1,0,.2,0-.2,1.5-1.9,1.4-2.2.1.7,0,1.4,0,2,0Z"/>
          <path class="st7" d="M83,165c0-.5,0-.9,0-1.4.2.4.2.8,0,1.3,0,0,0,0-.1,0Z"/>
          <path class="st7" d="M100.1,155.7c1-1.6,3.1-1.3,2.1.9-.2,0-.4.2-.7.3-.4-.5-1.1-.7-1.4-1.2Z"/>
          <path class="st7" d="M85.2,170.9c1.3.2,1.4,2.2-.2,2-.2,0-.3,0-.4,0-.2-.4-.3-.8-.5-1.2.2-.6.6-1.1,1.1-.9Z"/>
          <path class="st7" d="M107.3,167.7c-.8,0-1-.1-1.6-.6.1-1.3,1.5-2.1,2.4-.9-.3.5-.5,1-.8,1.5Z"/>
          <path class="st7" d="M115.8,164.8c-.4.4-.8.3-1.2.2-2.8-2,1.5-3.5,1.2-.2Z"/>
          <path class="st7" d="M102.2,178.1c-.4.2-.8.4-1.2.5-2.7-1,1.7-4,1.2-.5Z"/>
          <path class="st7" d="M103.7,175.9c-1.2.1-.7-2,0-2.2,1.8.3,1.7,2.2,0,2.2Z"/>
          <path class="st7" d="M111.2,165.9c.3-.2.7-.4,1.1-.5.3.1.6.2.8.3,0,.5,0,1,0,1.5-1,.8-2.5,0-2-1.3Z"/>
          <path class="st7" d="M86.8,163.2c.2-.2.5-.3.7-.6,3.7,1-.4,3.9-.7.6Z"/>
          <path class="st7" d="M97.6,175c0-.9.8-1.2,1.6-1.3,1.9,1.8-.8,3-1.6,1.3Z"/>
          <path class="st7" d="M119.3,163.6c.3-.9,1.5-.8,2-.1-.3.5-.6,1-.9,1.5-.5,0-.9-.7-1.1-1.4Z"/>
          <path class="st7" d="M104.5,154.1c-1.3.4-1.6-.6-1.3-1.4.6.1,1.3.2,1.9.3,0,.4-.4.7-.7,1.1Z"/>
          <path class="st7" d="M117.8,162.3c-.4-.4-1-.5-1.2-1.1.3-.4.1-1,.9-1.4.8,1,2.6,1.6.3,2.5Z"/>
          <path class="st7" d="M114,157.6c.5,0,.9,0,1.5-.1.2.3.4.5.6.7-.4.9-.5,1-1.6,1.4-.3-.4-.6-.6-.8-1.1.1-.3.2-.6.3-.9Z"/>
          <path class="st7" d="M88.1,152c.3.3.6.5,1,.8,0,1.1-.9,1.3-1.8,1.4-.6-.5-.5-1.1-.4-1.6.4-.2.8-.4,1.1-.6Z"/>
          <path class="st7" d="M95.4,151.2c0,0-.1-.2-.2-.3.3,0,.7.2,1,.3-.3,0-.6.1-.8,0Z"/>
          <path class="st7" d="M108.7,174.9c-.3-.8.7-1.8,1.2-1,.2.4.8.7.7,1.2-.4.3-.8.5-1.2.8-.5,0-1-.4-.8-1Z"/>
          <path class="st7" d="M92.9,165c-.3-.3-.7-.5-.8-.9.5-.6.9-1,1.4-1.6,1.3.9.9,2.4-.6,2.5Z"/>
          <path class="st7" d="M112.2,157.1c-.9-.5-1-1.2-.8-2,.6-.4.6-.4,1.2-.4.6.8,1,2.2-.4,2.4Z"/>
          <path class="st7" d="M102.8,158.3q.4-.6,1.4-.9c.3.3.6.5.9.9q-.3.8-1.1,1.1c-.8.5-.9-.6-1.2-1.1Z"/>
          <path class="st7" d="M122.9,151.7c-.3-.5-.6-.9-1-1.5.7-.2,1-.8,1.7-1,.2.4.4.7.6,1.1-.3.6-.5,1.3-1.4,1.3Z"/>
          <path class="st7" d="M90.9,171.1c.2.6.4,1.1.7,1.5,0,.9-3.2.5-1.3,0-.4-.2-.6-.3-.8-.4-.4-.8.7-1.5,1.4-1.1Z"/>
          <path class="st7" d="M90.7,176.6c.9.4,1.4,1.6.2,2-.3,0-.5,0-.7-.1,0,0,0,0,0,0-.9-.5-1-1.7.6-1.8Z"/>
          <path class="st7" d="M113.2,171.4c.2,1.4-.4,1.8-1.7,1.6-.1-.4-.2-.8-.3-1.1.3-.7,1.4-.8,2-.4Z"/>
          <path class="st7" d="M94.1,170.2c-1.4.3-1.6-.5-1.9-1.6,1.8-1,2,0,1.9,1.6Z"/>
          <path class="st7" d="M117.2,151.2c.4-.2.9-.4,1.3-.6-.5.6-1,.8-1.3.6Z"/>
          <path class="st7" d="M97.8,168.8c1-.5,1.2-.5,2.1.5-.3.3-.6.7-.7,1.1-1.3.2-1.6-.5-1.4-1.6Z"/>
          <path class="st7" d="M107.9,161.2c-.4.6-.9,1.2-1.7,1.3-.3-.7-.3-1.3-.1-2,1-.3,1.1-.3,1.8.8Z"/>
          <path class="st7" d="M110.6,169.6c-.5.9-2,1.4-2.3,0,.4-.9,2.7-1.6,2.3,0Z"/>
          <path class="st7" d="M93.3,175.9c-2-1.5-1.1-2.2,1-1.9.2,1-.2,1.4-1,1.9Z"/>
          <path class="st7" d="M107.6,171.4c0,.2.2.4.3.6-.7,1-.8,1-1.6,1.2-.3-.4-.4-.9-.5-1.3.5-.7,1.2-.7,1.8-.5Z"/>
          <path class="st7" d="M94.3,152.7c-.3.4-.2,1-.8,1.4-.5-.2-.9-.4-1.4-.7,0-1.4,1.2-1.6,2.2-.7Z"/>
          <path class="st7" d="M96.2,178.6c-.6,0-1.5-1.1-.9-1.6.4,0,.4-.5.8-.8.9.3,1.3,2.4,0,2.4Z"/>
          <path class="st7" d="M95.1,156.8c0-.7,0-1.7.7-2.1.5-.2,1.2.3.8.8.6,1-.3,1.6-1.4,1.3Z"/>
          <path class="st7" d="M125.6,152c.3.2.7.3,1,.5-.2.4-.3.8-.5,1.2-.3.1-.6.2-.9.2-.6-.9-.6-1.4.3-1.9Z"/>
          <path class="st7" d="M100.3,172.5c.3-1.1.4-1.7,1.7-1.3,1,1.1-.8,2.4-1.7,1.3Z"/>
          <path class="st7" d="M96.1,162.3h-1c-1-1.9.6-2.2,1.7-1.1-.3.4-.5.7-.8,1.1Z"/>
          <path class="st7" d="M89.4,161.9v-.8c.8-.7,1.5-.4,2.2,0-.2,1-1.4,1.6-2.2.8Z"/>
          <path class="st7" d="M116.7,155.6c.4-.4,1.9-1.5,1.8-.3-.1.2-.1.5,0,.8,0,1.1-1.4.7-1.7-.5Z"/>
          <path class="st7" d="M100.7,160.6c.7-.7,1.5,0,.8.7.2.1.4.2.6.3-.4,1.6-2.4,0-1.5-1.1Z"/>
          <path class="st7" d="M97.8,159c0-.4.2-.9.3-1.3.7-.2,1.1.1,1.5.6-.5.6-1,1.7-1.8.7Z"/>
        </g>
        <path class="st7" d="M87,148c6.9,4.4,15.3,6.6,23.5,5.9,7.9-.7,15.4-3.9,21.4-9.1.6-.5-.3-1.3-.8-.8-5.8,5-13.2,8.2-20.9,8.7-7.9.6-15.8-1.5-22.5-5.7-.6-.4-1.2.6-.6,1h0Z"/>
        <path class="st7" d="M93.5,220.4c15.5,4.7,31.8,6.7,48.1,6,.8,0,.8-1.2,0-1.2-16.1.8-32.3-1.2-47.7-5.9-.7-.2-1.1.9-.3,1.2h0Z"/>
      </g>
      <g>
        <path class="st15" d="M200.4,175.5s-.9-3.7,1.8-7.5c1.7-2.4,3-4.8,4-7,.9-2,1.8-5.3,3.5-5.1,1.6.2,2.9,1.5,2.7,3.7-.2,2.2-1,4.2-2.2,6.6,0,0,3.1-1.7,6.2-3.1,2.8-1.3,12.7-6.7,13.9-4,0,0,1.1,1.8-1,2.8-2.1,1.1-9.7,5-10.5,5.8-.8.8-1,.6-.6,1.2s3.5-1.1,4.4-1.3c.8-.2,7.8-3.5,11.1-2.7,1.2.3,1.8,1.6,1.2,2.7-.3.6-.9,1.3-2,1.7,0,0,2.7-.3,2.8,1.8,0,2.1-4.3,4.3-5.3,4.6-1,.3-6.8,2.2-7.2,3.1-.4.9.1.8.8.9.7,0,7.1-.2,9.1,2.4,1.6,2.1-.6,3.4-3.2,3.1-1.4-.2-6.6-.8-9.8.4s-7.1,1.9-8.5,2.2c-2.9.5-3.3-.3-4.8.7s-8.2,6.7-8.2,6.7c0,0-14.4-5.5-11.4-8.9,1.5-1.7,13-10.8,13-10.8Z"/>
        <g>
          <path class="st6" d="M171.3,187s17.6-17.8,28.1-13.2,14.9,16.8,10.2,21.3c-5,4.8-27.1,32.4-36.8,29.6-11-3.2-1.5-37.7-1.5-37.7Z"/>
          <path class="st7" d="M144,197.1c2.3,3.8,4.6,7.6,7,11.3,1.9,3.1,3.9,6.3,6.2,9.2,4,4.9,9.5,8.8,16.1,8.4,4.1-.2,7.8-2,11.2-4.3.6-.4,0-1.5-.6-1-5.4,3.8-12,5.6-18.2,2.6-6.1-3-9.8-9.2-13.3-14.8-2.4-4-4.9-8-7.3-11.9-.4-.7-1.4,0-1,.6h0Z"/>
          <path class="st7" d="M170.5,177.5c4.2,8.3,7.7,17,12.1,25.2.4.7,1.4,0,1-.6-4.4-8.2-7.9-16.9-12.1-25.2-.3-.7-1.4,0-1,.6h0Z"/>
          <path class="st7" d="M144.3,150.5c-5.3,10.7-6.5,23.2-3.2,34.7.2.7,1.4.4,1.2-.3-3.2-11.2-2.1-23.4,3.1-33.8.3-.7-.7-1.3-1-.6h0Z"/>
          <path class="st0" d="M143,187.8c3.8,1.6,9.1-1.3,12.6-2.9,4.9-2.2,9.6-5,13.8-8.4,1.4-1.1-.5-3.5-1.9-2.4-4.1,2.9-8.2,5.6-12.7,7.8-3.5,1.7-9.4,2.6-11.9,5.6,0,.1,0,.2,0,.3h0Z"/>
          <path class="st0" d="M156.9,214.6c3.8.7,8.3-2,11.6-3.9,4.2-2.4,8.4-5.4,11.6-9.2,1.1-1.3-.7-3.2-1.9-1.9-3.4,3.4-6.7,6.6-10.9,9.1-3.3,1.9-7.7,2.7-10.5,5.2-.2.2-.1.6.2.7h0Z"/>
          <path class="st0" d="M184.3,178.5c8.1,5.9,13.6,14.8,17.6,23.7.7,1.5,3.2.4,2.7-1.1-3.7-10.3-11-17.3-20.2-22.8-.1,0-.2.1-.1.2h0Z"/>
        </g>
      </g>
    </g>
  </g>
  <g>
    <path class="st1" d="M281,63.6h1.1v6c0,2.4-1.2,3.1-2.7,3.1s-.9,0-1.2-.2l.2-.9c.2,0,.6.2,1,.2,1,0,1.6-.5,1.6-2.2v-5.9Z"/>
    <path class="st1" d="M284,63.7c.6,0,1.3-.2,2.2-.2s2,.3,2.5.7c.5.4.8,1.1.8,1.9s-.2,1.4-.7,1.9c-.6.6-1.6,1-2.7,1s-.7,0-.9,0v3.6h-1.1v-8.8ZM285.2,68c.3,0,.6,0,1,0,1.4,0,2.2-.7,2.2-1.9s-.8-1.7-2.1-1.7-.9,0-1.1,0v3.5Z"/>
    <path class="st1" d="M301.5,67.9c0,3.1-1.9,4.7-4.1,4.7s-4-1.8-4-4.5,1.8-4.7,4.1-4.7,4,1.9,4,4.5ZM294.6,68.1c0,1.9,1,3.6,2.8,3.6s2.9-1.7,2.9-3.7-.9-3.6-2.8-3.6-2.9,1.8-2.9,3.7Z"/>
    <path class="st1" d="M302.9,67.8c0-.7,0-1.2,0-1.7h1v1.1h0c.3-.6,1.1-1.2,2.1-1.2s2.3.5,2.3,2.7v3.8h-1.2v-3.7c0-1-.4-1.9-1.5-1.9s-1.4.5-1.6,1.2c0,.1,0,.3,0,.5v3.8h-1.2v-4.7Z"/>
    <path class="st1" d="M310.2,63.1h1.2v9.4h-1.2v-9.4Z"/>
    <path class="st1" d="M314.6,64.3c0,.4-.3.7-.7.7s-.7-.3-.7-.7.3-.7.7-.7.7.3.7.7ZM313.3,72.5v-6.4h1.2v6.4h-1.2Z"/>
    <path class="st1" d="M316.4,67.8c0-.7,0-1.2,0-1.7h1v1.1h0c.3-.6,1.1-1.2,2.1-1.2s2.3.5,2.3,2.7v3.8h-1.2v-3.7c0-1-.4-1.9-1.5-1.9s-1.4.5-1.6,1.2c0,.1,0,.3,0,.5v3.8h-1.2v-4.7Z"/>
    <path class="st1" d="M324.4,69.5c0,1.6,1,2.2,2.2,2.2s1.3-.1,1.8-.3l.2.8c-.4.2-1.1.4-2.1.4-2,0-3.1-1.3-3.1-3.2s1.1-3.4,3-3.4,2.6,1.8,2.6,3,0,.4,0,.5h-4.5ZM327.8,68.7c0-.7-.3-1.9-1.6-1.9s-1.7,1.1-1.8,1.9h3.4Z"/>
  </g>
</svg>